<svg width="473" height="500" viewBox="0 0 473 500" fill="none" xmlns="http://www.w3.org/2000/svg">
<g clip-path="url(#clip0)">
<path d="M64.8783 391.742L59.2508 369.552C49.2743 365.324 39.0673 361.663 28.6785 358.585L27.9687 368.898L25.0874 357.537C12.2036 353.858 3.43872 352.238 3.43872 352.238C3.43872 352.238 15.2804 397.258 40.1141 431.676L69.0489 436.757L46.5707 439.999C49.6958 443.758 53.0543 447.317 56.6262 450.654C92.7513 484.182 132.987 499.563 146.494 485.009C160.002 470.455 141.667 431.477 105.542 397.949C94.3428 387.555 80.2745 379.214 66.1924 372.65L64.8783 391.742Z" fill="#F9A826"/>
<path d="M118.387 367.64L125.04 345.735C118.685 336.959 111.84 328.549 104.538 320.544L98.5991 329.006L102.005 317.791C92.8776 307.982 86.2119 302.065 86.2119 302.065C86.2119 302.065 73.078 346.725 76.5463 389.024L98.6895 408.33L77.7712 399.487C78.5034 404.32 79.5389 409.102 80.8716 413.806C94.4656 461.18 120.958 495.145 140.044 489.668C159.131 484.192 163.583 441.347 149.989 393.973C145.774 379.286 138.043 364.874 129.381 351.976L118.387 367.64Z" fill="#F9A826"/>
<path d="M236.18 500C366.619 500 472.36 494.593 472.36 487.923C472.36 481.252 366.619 475.845 236.18 475.845C105.741 475.845 0 481.252 0 487.923C0 494.593 105.741 500 236.18 500Z" fill="#3F3D56"/>
<path d="M374.166 116.042H371.483V42.5405C371.483 36.954 370.383 31.4222 368.245 26.261C366.107 21.0997 362.974 16.41 359.024 12.4598C355.073 8.50953 350.384 5.37602 345.222 3.23817C340.061 1.10031 334.529 -1.67412e-05 328.943 1.91034e-10H173.221C167.634 -1.23356e-05 162.102 1.10032 156.941 3.23818C151.78 5.37603 147.09 8.50955 143.14 12.4598C139.19 16.4101 136.056 21.0997 133.918 26.261C131.781 31.4222 130.68 36.954 130.68 42.5405V445.774C130.68 451.36 131.781 456.892 133.918 462.053C136.056 467.215 139.19 471.904 143.14 475.854C147.09 479.805 151.78 482.938 156.941 485.076C162.102 487.214 167.634 488.314 173.221 488.314H328.943C334.529 488.314 340.061 487.214 345.222 485.076C350.384 482.938 355.073 479.805 359.024 475.854C362.974 471.904 366.107 467.215 368.245 462.053C370.383 456.892 371.483 451.36 371.483 445.774V168.361H374.166V116.042Z" fill="#3F3D56"/>
<path d="M362.429 42.8374V445.477C362.429 453.903 359.082 461.984 353.123 467.942C347.165 473.9 339.085 477.247 330.659 477.248H174.189C165.763 477.247 157.683 473.9 151.725 467.942C145.767 461.984 142.419 453.903 142.419 445.477V42.8374C142.419 34.4114 145.767 26.3306 151.725 20.3726C157.683 14.4146 165.763 11.0673 174.189 11.0671H193.171C192.238 13.3591 191.883 15.8452 192.137 18.3067C192.39 20.7682 193.245 23.1297 194.625 25.1834C196.006 27.2371 197.87 28.9201 200.053 30.0844C202.237 31.2487 204.673 31.8585 207.147 31.8604H296.359C298.833 31.8585 301.27 31.2486 303.453 30.0843C305.637 28.92 307.5 27.237 308.881 25.1833C310.261 23.1296 311.116 20.7682 311.369 18.3067C311.623 15.8452 311.268 13.3591 310.335 11.0671H330.659C339.085 11.0673 347.165 14.4145 353.123 20.3726C359.082 26.3306 362.429 34.4114 362.429 42.8374Z" fill="white"/>
<path d="M362.429 358.97V445.477C362.429 453.903 359.082 461.984 353.123 467.942C347.165 473.9 339.085 477.247 330.659 477.248H174.189C165.763 477.247 157.683 473.9 151.725 467.942C145.767 461.984 142.419 453.903 142.419 445.477V367.404C155.837 351.652 172.377 338.856 190.993 329.822C209.609 320.789 229.897 315.716 250.574 314.923C271.251 314.131 291.867 317.636 311.12 325.217C330.373 332.799 347.844 344.292 362.429 358.97Z" fill="#E6E6E6"/>
<path d="M216.168 342.976H209.844L211.952 219.449H214.06L216.168 342.976Z" fill="#E6E6E6"/>
<path d="M221.437 141.678L231.645 125.903C228.618 117.54 225.122 109.356 221.173 101.387L214.572 106.718L219.798 98.6413C214.817 88.8366 210.898 82.6592 210.898 82.6592C210.898 82.6592 190.426 114.92 183.586 149.077L196.685 169.321L182.184 157.608C181.668 161.587 181.402 165.595 181.389 169.607C181.389 210.06 194.601 242.854 210.898 242.854C227.196 242.854 240.408 210.06 240.408 169.607C240.408 157.066 237.571 143.946 233.657 131.809L221.437 141.678Z" fill="#E6E6E6"/>
<path d="M179.469 351.698H176.402L177.425 291.789H178.447L179.469 351.698Z" fill="#E6E6E6"/>
<path d="M182.025 254.071L186.975 246.42C185.507 242.365 183.812 238.395 181.896 234.531L178.695 237.116L181.23 233.199C178.814 228.444 176.913 225.448 176.913 225.448C176.913 225.448 166.985 241.094 163.667 257.66L170.02 267.478L162.987 261.797C162.737 263.727 162.608 265.671 162.602 267.616C162.602 287.236 169.009 303.14 176.913 303.14C184.818 303.14 191.225 287.236 191.225 267.616C191.225 261.534 189.849 255.171 187.951 249.285L182.025 254.071Z" fill="#E6E6E6"/>
<path d="M259.314 351.698H256.247L257.27 291.789H258.292L259.314 351.698Z" fill="#E6E6E6"/>
<path d="M261.87 254.071L266.82 246.42C265.352 242.365 263.657 238.395 261.741 234.531L258.54 237.116L261.075 233.199C258.659 228.444 256.758 225.448 256.758 225.448C256.758 225.448 246.83 241.094 243.512 257.66L249.865 267.478L242.832 261.797C242.582 263.727 242.453 265.671 242.447 267.616C242.447 287.236 248.854 303.14 256.758 303.14C264.663 303.14 271.07 287.236 271.07 267.616C271.07 261.534 269.694 255.171 267.796 249.285L261.87 254.071Z" fill="#E6E6E6"/>
<path d="M177.135 153.111C192.699 153.111 205.315 140.494 205.315 124.93C205.315 109.366 192.699 96.7495 177.135 96.7495C161.571 96.7495 148.954 109.366 148.954 124.93C148.954 140.494 161.571 153.111 177.135 153.111Z" fill="#E6E6E6"/>
<path d="M279.036 157.122L330.473 158.4L337.396 97.0659H279.036V157.122Z" fill="#2F2E41"/>
<path d="M266.219 109.071L252.03 54.6705C252.03 54.6705 255.95 28.5564 265.432 28.9872C274.914 29.418 262.971 54.5168 262.971 54.5168L279.036 101.51L266.219 109.071Z" fill="#FFB8B8"/>
<path d="M294.034 245.376L296.255 267.595C296.255 267.595 226.266 315.365 226.266 335.362C226.266 355.359 224.044 418.683 224.044 418.683L249.596 419.794L251.818 389.798C251.818 389.798 257.373 356.47 254.04 344.25L290.701 316.476C290.701 316.476 279.591 329.808 281.813 353.137C284.035 376.467 278.48 422.015 278.48 422.015L305.143 424.237C305.143 424.237 308.476 399.797 309.587 397.575C310.698 395.353 316.252 355.359 310.698 344.25L356.246 290.925C356.246 290.925 371.799 270.928 356.246 250.931L347.359 246.487L294.034 245.376Z" fill="#2F2E41"/>
<path d="M225.155 414.239L222.933 428.681L208.491 463.12C208.491 463.12 184.051 475.34 201.826 477.562C219.601 479.784 226.266 475.34 229.599 469.786C232.932 464.231 239.598 455.344 239.598 455.344L238.487 478.673H244.041L253.146 446.808C254.037 443.757 254.192 440.539 253.598 437.417C253.004 434.295 251.677 431.358 249.728 428.848C249.685 428.792 249.64 428.737 249.596 428.681C245.152 423.126 247.374 415.35 247.374 415.35L225.155 414.239Z" fill="#2F2E41"/>
<path d="M280.702 414.239L278.48 428.681L264.038 463.12C264.038 463.12 239.598 475.34 257.373 477.562C275.148 479.784 281.813 475.34 285.146 469.786C288.479 464.231 295.144 455.344 295.144 455.344L294.034 478.673H299.588L308.693 446.808C309.584 443.757 309.738 440.539 309.144 437.417C308.55 434.295 307.224 431.358 305.275 428.848C305.231 428.792 305.187 428.737 305.143 428.681C300.699 423.126 302.921 415.35 302.921 415.35L280.702 414.239Z" fill="#2F2E41"/>
<path d="M307.365 130.949C319.636 130.949 329.584 121.002 329.584 108.731C329.584 96.4596 319.636 86.512 307.365 86.512C295.094 86.512 285.146 96.4596 285.146 108.731C285.146 121.002 295.094 130.949 307.365 130.949Z" fill="#FFB8B8"/>
<path d="M306.254 127.617L316.252 150.946L336.249 135.393C336.249 135.393 324.029 118.729 324.029 116.507L306.254 127.617Z" fill="#FFB8B8"/>
<path d="M308.476 140.948L313.215 143.86C313.215 143.86 328.529 135.741 332.389 130.013C332.389 130.013 346.247 125.395 351.802 136.504C357.357 147.614 348.469 224.268 348.469 224.268C348.469 224.268 354.024 232.045 352.913 235.378C351.802 238.711 356.246 244.265 356.246 244.265V250.931C356.246 250.931 292.922 252.042 292.922 246.487V228.712L286.257 226.49C286.257 226.49 279.591 240.933 277.369 239.822C275.147 238.711 264.038 229.823 264.038 229.823C264.038 229.823 281.813 170.943 291.812 160.945L304.032 139.837L308.476 140.948Z" fill="#F9A826"/>
<path d="M306.254 142.059C306.254 142.059 304.032 137.615 300.699 136.504C297.366 135.393 280.702 112.064 280.702 112.064L282.924 99.8433L260.705 96.5105C260.705 96.5105 261.816 108.731 266.26 116.507C270.704 124.284 295.144 164.278 295.144 164.278L307.365 142.059L306.254 142.059Z" fill="#F9A826"/>
<path d="M323.473 230.378L310.142 270.372C310.142 270.372 282.369 301.478 297.922 301.478C313.475 301.478 321.251 273.705 321.251 273.705L340.137 233.711L323.473 230.378Z" fill="#FFB8B8"/>
<path d="M280.735 109.056C298.531 101.923 316.075 100.402 333.161 109.056V94.679C333.161 93.4494 332.919 92.2318 332.449 91.0957C331.978 89.9597 331.288 88.9274 330.419 88.058C329.549 87.1885 328.517 86.4988 327.381 86.0282C326.245 85.5576 325.027 85.3154 323.798 85.3154H288.133C287.161 85.3154 286.199 85.5068 285.302 85.8785C284.404 86.2503 283.589 86.7951 282.902 87.4821C282.215 88.169 281.67 88.9844 281.298 89.8819C280.927 90.7794 280.735 91.7413 280.735 92.7128V109.056Z" fill="#2F2E41"/>
<path d="M337.36 139.837C337.36 139.837 347.496 131.252 352.982 141.099C358.468 150.946 355.135 193.162 354.024 198.717C352.913 204.272 345.137 238.711 345.137 238.711L318.474 233.156C318.474 233.156 316.252 217.603 322.918 218.714L337.36 139.837Z" fill="#F9A826"/>
<path d="M348.418 130.291C343.403 127.536 341.068 121.354 340.902 115.635C340.736 109.915 342.123 104.255 342.232 98.5338C342.288 97.3633 342.188 96.1906 341.935 95.0465C341.519 93.6263 340.871 92.2847 340.017 91.0762C333.495 81.0822 322.157 74.0522 310.215 73.9416C308.49 73.919 306.777 74.2339 305.172 74.8686C303.938 75.3631 303.534 75.3026 303.297 76.8186C300.468 75.8853 297.4 75.9828 294.637 77.094C291.899 78.2069 289.346 79.7277 287.063 81.6045C285.706 82.6133 284.426 83.7215 283.234 84.9199C276.923 91.4579 275.469 101.534 277.298 110.435C277.892 113.329 275.04 116.123 272.68 117.901C270.32 119.678 267.595 121.31 266.437 124.028C265.322 126.642 265.934 129.632 265.71 132.465C265.458 135.143 264.462 137.697 262.836 139.839C261.209 141.982 259.016 143.627 256.504 144.589C257.017 145.202 257.685 145.666 258.439 145.931C259.193 146.196 260.005 146.253 260.789 146.095C262.425 145.751 263.955 145.022 265.254 143.97C270.138 140.35 273.633 135.165 275.155 129.279C275.848 132.432 275.579 135.683 275.553 138.911C275.614 142.513 274.951 146.09 273.603 149.431C272.231 152.788 269.72 155.553 266.51 157.241C269.606 158.757 273.017 157.658 275.64 155.422C278.263 153.186 279.812 149.94 280.894 146.668C282.654 141.335 283.368 135.712 282.997 130.109C285.876 134.956 286.928 140.673 285.964 146.228C284.956 151.892 281.999 157.025 277.605 160.737C285.267 160.673 292.802 158.775 299.58 155.203C301.331 154.41 302.874 153.222 304.088 151.732C306.269 148.706 305.753 144.579 305.141 140.899C304.657 137.989 308.293 133.783 306.211 131.694C305.592 131.083 304.766 130.727 303.897 130.699C297.554 130.088 291.682 126.903 288.297 121.505C285.924 117.722 284.354 113.403 284.354 109.362C284.355 106.181 285.044 103.038 286.372 100.148C287.7 97.2571 289.637 94.6875 292.05 92.6145C294.463 90.5414 297.294 89.0137 300.352 88.1358C303.409 87.258 306.62 87.0506 309.766 87.528C312.911 88.0053 315.915 89.1561 318.575 90.9017C321.234 92.6473 323.485 94.9465 325.174 97.6421C326.863 100.338 327.95 103.366 328.361 106.521C328.771 109.675 328.496 112.881 327.554 115.919C326.803 118.364 326.265 120.87 325.945 123.407C325.568 126.352 324.969 129.264 324.152 132.118C322.577 137.604 319.908 143.201 314.97 146.062C316.629 146.97 318.55 147.011 320.43 147.218C326.626 147.901 333.143 147.75 338.752 145.029C344.36 142.307 348.818 136.512 348.418 130.291Z" fill="#2F2E41"/>
<path opacity="0.2" d="M329.028 169.277L323.23 217.005L323.473 171.499L329.028 169.277Z" fill="black"/>
<path opacity="0.2" d="M348.078 225.64L345.692 240.377L351.247 242.599L348.078 225.64Z" fill="black"/>
</g>
<defs>
<clipPath id="clip0">
<rect width="472.36" height="500" fill="white"/>
</clipPath>
</defs>
</svg>
