<svg width="680" height="484" viewBox="0 0 680 484" fill="none" xmlns="http://www.w3.org/2000/svg">
<g clip-path="url(#clip0)">
<path d="M57.7896 483.213C89.6899 483.213 115.55 480.116 115.55 476.295C115.55 472.474 89.6899 469.376 57.7896 469.376C25.8894 469.376 0.0290527 472.474 0.0290527 476.295C0.0290527 480.116 25.8894 483.213 57.7896 483.213Z" fill="#E6E6E6"/>
<path d="M680 0.299438H150.834V339.201H680V0.299438Z" fill="#E6E6E6"/>
<path d="M664.869 42.8062H165.966V319.151H664.869V42.8062Z" fill="white"/>
<path d="M679.774 -0.000488281H150.608V22.4804H679.774V-0.000488281Z" fill="#F9A826"/>
<path d="M167.314 15.6596C169.616 15.6596 171.481 13.7941 171.481 11.493C171.481 9.19177 169.616 7.32629 167.314 7.32629C165.013 7.32629 163.148 9.19177 163.148 11.493C163.148 13.7941 165.013 15.6596 167.314 15.6596Z" fill="white"/>
<path d="M183.13 15.6596C185.431 15.6596 187.297 13.7941 187.297 11.493C187.297 9.19177 185.431 7.32629 183.13 7.32629C180.829 7.32629 178.963 9.19177 178.963 11.493C178.963 13.7941 180.829 15.6596 183.13 15.6596Z" fill="white"/>
<path d="M198.946 15.6596C201.247 15.6596 203.112 13.7941 203.112 11.493C203.112 9.19177 201.247 7.32629 198.946 7.32629C196.645 7.32629 194.779 9.19177 194.779 11.493C194.779 13.7941 196.645 15.6596 198.946 15.6596Z" fill="white"/>
<path d="M449.502 112.381C449.415 112.69 449.365 113.008 449.354 113.329L449.502 112.381Z" fill="#7F77FF"/>
<path d="M385.697 141.578C385.667 140.884 385.543 140.594 385.43 140.559C385.512 141.203 385.588 141.733 385.697 141.578Z" fill="#7F77FF"/>
<path d="M384.408 156.237C384.386 156.538 384.363 156.816 384.325 157.154C384.252 156.848 384.281 156.526 384.408 156.237Z" fill="#7F77FF"/>
<path d="M449.354 113.329L448.963 115.766C449.368 115.937 449.264 114.517 449.354 113.329Z" fill="#7F77FF"/>
<path d="M471.358 90.6228L472.099 90.6209C472.321 90.4743 472.528 90.3047 472.714 90.1151L471.358 90.6228Z" fill="#7F77FF"/>
<path d="M500.392 91.9044C500.418 91.7306 500.496 91.5687 500.615 91.4396C500.734 91.3104 500.889 91.22 501.06 91.1801C500.866 90.9081 500.643 90.6573 500.396 90.4317C500.038 90.3858 500.416 91.4426 500.392 91.9044Z" fill="#7F77FF"/>
<path d="M530.771 71.1983C530.868 71.1836 530.96 71.1691 531.034 71.1544L530.771 71.1983Z" fill="#7F77FF"/>
<path d="M530.165 71.2995L530.771 71.1982C530.57 71.2287 530.342 71.2604 530.165 71.2995Z" fill="#7F77FF"/>
<path d="M448.116 93.1195C448.043 93.1046 447.967 93.1133 447.899 93.1443C447.831 93.1754 447.775 93.2271 447.739 93.2922C447.871 93.3781 447.997 93.2899 448.116 93.1195Z" fill="#7F77FF"/>
<path d="M567.79 72.3843L567.847 72.88C568.039 72.9409 568.238 72.977 568.439 72.9873L567.79 72.3843Z" fill="#7F77FF"/>
<path d="M382.069 174.039C382.077 174.039 382.077 174.047 382.062 174.062C382.062 174.069 382.054 174.077 382.047 174.084C382.047 174.099 381.934 174.114 381.851 174.13C381.809 174.118 381.766 174.11 381.723 174.107C381.836 174.092 381.949 174.069 382.039 174.062C382.054 174.047 382.062 174.039 382.069 174.039Z" fill="#7F77FF"/>
<path d="M297.392 290.507C294.428 289.562 302.216 289.294 297.754 288.244C298.169 288.658 293.697 289.893 297.392 290.507Z" fill="#7F77FF"/>
<path d="M321.088 187.683C320.984 187.938 320.825 188.166 320.622 188.352C320.847 187.856 320.975 187.705 321.088 187.683Z" fill="#7F77FF"/>
<path d="M364.974 176.243C364.567 176.231 364.162 176.186 363.763 176.108L364.974 176.243Z" fill="#7F77FF"/>
<path d="M305.382 191.416C304.969 191.336 304.545 191.336 304.132 191.417C304.217 191.47 304.309 191.514 304.405 191.545C304.714 191.417 305.051 191.373 305.382 191.416Z" fill="#7F77FF"/>
<path d="M305.382 191.416C305.539 191.444 305.703 191.476 305.913 191.501C305.738 191.461 305.561 191.433 305.382 191.416Z" fill="#7F77FF"/>
<path d="M279.471 191.508C279.611 191.588 279.796 191.649 279.959 191.72C280.221 191.703 280.527 191.682 280.797 191.664L279.471 191.508Z" fill="#7F77FF"/>
<path d="M301.421 192.218C301.418 192.236 301.412 192.253 301.401 192.267C301.391 192.282 301.377 192.293 301.36 192.301C301.39 192.255 301.421 192.218 301.421 192.218Z" fill="#7F77FF"/>
<path d="M563.474 288.973C563.303 288.958 563.134 288.944 562.947 288.924C563.144 288.95 563.315 288.964 563.474 288.973Z" fill="#7F77FF"/>
<path d="M570.603 264.705C570.596 264.705 570.591 264.709 570.584 264.709C570.591 264.738 570.597 264.73 570.603 264.705Z" fill="#7F77FF"/>
<path d="M362.717 176.927C362.988 176.876 363.252 176.798 363.507 176.694C364.056 176.837 363.304 176.83 362.717 176.927Z" fill="#7F77FF"/>
<path d="M569.834 172.027C569.875 171.849 569.917 171.648 569.968 171.404C569.919 171.614 569.878 171.82 569.834 172.027Z" fill="#7F77FF"/>
<path d="M571.194 252.131C571.276 251.951 571.391 251.787 571.533 251.65L571.638 252.026C571.72 251.253 571.669 250.472 571.488 249.717C571.652 248.714 571.747 247.701 571.773 246.686C572.571 246.257 572.202 242.384 572.247 240.518C571.194 240.669 571.36 238.269 570.51 240.458C570.57 240.33 570.608 240.97 570.653 242.113C570.669 242.381 570.707 242.648 570.766 242.91C570.736 242.872 570.706 242.827 570.668 242.782C570.69 244.008 570.713 245.61 570.743 247.43C570.025 245.831 569.881 244.032 570.337 242.338C569.66 241.383 568.961 240.323 568.637 239.729C570.111 237.171 570.909 232.238 571.811 231.553C571.224 225.845 571.42 218.105 569.434 214.51C569.179 212.886 570.006 212.645 570.322 212.036C570.517 212.976 570.487 214.089 570.773 214.601C570.262 211.351 570.578 204.981 569.186 204.206C569.811 200.115 570.465 206.508 570.239 200.882L570.66 201.642C572.842 190.774 567.321 183.899 569.833 172.024C569.735 172.467 569.645 172.731 569.48 172.851C570.736 158.877 568.299 144.045 570.292 130.252C570.69 126.333 569.811 125.904 569.134 123.513L570.269 122.663L568.961 118.571C567.998 112.773 571.743 108.531 569.931 101.183L569.164 102.13C569.314 99.4903 568.712 93.7743 569.592 94.218C569.361 93.9675 569.202 93.6586 569.133 93.3247C569.065 92.9907 569.088 92.6443 569.201 92.3227L569.796 92.24L568.773 85.7568C569.201 80.7402 571.134 86.5465 571.247 79.2134C571.021 76.4908 569.517 71.4592 569.119 72.482C569.096 73.5801 568.75 75.2874 568.156 75.3702L567.848 72.8807C567.735 72.8506 567.629 72.8205 567.517 72.7829V72.3842H566.441C566.217 72.2893 565.977 72.2404 565.734 72.2404C565.491 72.2404 565.251 72.2893 565.027 72.3842H538.064L538.357 72.091L537.47 72.3842H533.664C533.777 72.1586 534.138 71.9706 534.89 71.8804C532.122 71.1057 532.438 72.4369 530.069 71.572C529.806 71.4366 529.919 71.3614 530.167 71.3012L527.459 71.7675C527.993 71.4366 527.016 70.6619 528.67 70.8876C523.827 69.985 520.856 72.0609 519.028 70.8726L519.434 70.7823C514.403 71.1734 516.531 71.6171 515.809 72.3843H512.665L512.034 71.8578L511.184 71.1508C510.894 70.8849 510.579 70.6481 510.243 70.4438C509.985 70.807 509.753 71.1892 509.552 71.587C508.769 71.5494 507.16 71.4667 507.235 71.0004C505.859 71.399 506.145 71.5194 506.475 71.6397C506.836 71.76 507.273 71.8728 506.716 72.2489C505.835 72.0407 504.936 71.9173 504.031 71.8804C503.933 73.5501 504.054 75.5733 504.016 77.1151C503.978 78.7245 503.79 79.7625 503.053 80.0859C503.926 81.2817 503.73 76.8894 504.339 80.4544C502.369 81.4547 504.67 84.6211 503.768 87.5919C502.752 86.7345 503.294 83.7863 502.384 86.8549C502.67 87.158 502.881 87.5237 503.001 87.9229C503.086 88.3262 503.096 88.7418 503.031 89.1488C502.897 89.8714 502.693 90.5793 502.422 91.2622C501.977 91.1508 501.515 91.1227 501.06 91.1795C501.511 91.8639 500.504 92.0068 498.992 92.0369C498.082 92.0369 497.036 92.0444 495.968 92.0444C494.848 92.0595 493.697 92.0895 492.614 92.2024C492.885 91.7436 484.484 91.4578 480.467 90.9614L480.58 90.7282C479.806 92.1121 475.661 91.8488 472.638 92.1347C472.758 91.3073 473.3 90.984 474.939 90.6154L472.096 90.6229C471.427 91.0667 470.547 91.2998 468.704 91.4578L469.419 90.4199C467.531 90.4499 465.628 90.7583 463.59 90.9689C462.567 91.0742 461.522 91.1494 460.416 91.1644C459.867 91.172 459.303 91.1569 458.724 91.1269C458.438 91.1118 458.145 91.0892 457.852 91.0591C457.521 91.0215 457.19 90.9839 456.859 90.9463C456.753 91.187 457.122 91.4803 457.355 91.7812C457.644 92.0727 457.906 92.3899 458.137 92.7288C458.204 92.8215 458.245 92.9298 458.257 93.0433C458.269 93.1567 458.251 93.2713 458.205 93.3757H455.573C455.58 93.0899 455.753 92.8341 456.31 92.6987C455.535 92.9199 454.722 92.9738 453.926 92.8567C454.527 92.5709 455.227 92.2776 456.016 91.9842C453.158 91.6007 454.843 92.7138 452.835 92.6311C452.421 91.894 450.91 92.1046 450.744 91.5179C451.308 91.4427 452.933 91.8188 453.655 91.533C452.158 91.4578 450.391 91.2848 448.766 91.0441C448.67 91.7678 448.452 92.4699 448.119 93.1199C448.54 93.1575 449.12 93.8645 449.21 95.7974C449.24 98.2719 449.014 98.6705 448.736 98.8284C448.601 98.9036 448.45 98.9112 448.307 99.1067C448.22 99.2398 448.152 99.384 448.104 99.5354C448.027 99.737 447.971 99.9462 447.939 100.16C448.45 101.077 447.916 103.484 449.029 103.552C449.022 104.657 448.503 104.86 448.202 105.289C448.691 107.245 448.345 114.42 449.526 112.216L449.601 111.712C449.623 111.81 449.631 111.915 449.654 112.035C449.962 113.977 450.083 115.944 450.015 117.909C449.969 119.549 449.811 121.106 449.661 122.475C448.555 122.377 447.533 122.294 446.577 122.249C446.096 122.234 445.63 122.219 445.163 122.234L444.261 122.257C443.945 122.279 443.622 122.294 443.306 122.309L443.321 121.941C439.523 122.362 434.867 122.189 432.16 122.994C431.039 122.986 429.512 122.309 429.993 121.873C427.09 122.151 426.767 122.565 422.578 121.956C425.488 121.309 421.57 121.377 425.563 121.482C421.795 121.159 420.938 120.564 416.892 121.58C418.268 120.625 414.056 120.384 412.266 120.662L414.906 121.347C413.052 121.446 411.193 121.436 409.34 121.316L410.303 120.068C406.452 119.308 402.97 119.955 399.721 120.474C398.164 120.758 396.587 120.922 395.005 120.963L394.434 120.955L393.704 120.918C393.14 120.888 392.569 120.843 391.989 120.775C390.722 120.624 389.464 120.403 388.221 120.113C386.868 120.549 388.673 120.7 390.335 120.873C392.042 121.046 393.591 121.241 392.418 121.753C389.931 121.588 387.457 121.269 385.01 120.798C384.524 122.437 384.184 124.115 383.994 125.814C383.904 126.799 383.874 127.694 383.874 128.484C383.874 128.875 383.882 129.251 383.904 129.597C383.912 129.755 383.919 129.988 383.934 130.063C383.949 130.154 383.964 130.252 383.979 130.342C384.107 130.993 384.312 131.626 384.589 132.23C385.306 133.755 385.57 135.455 385.348 137.126C385.792 136.471 386.988 135.862 387.401 139.66C387.311 141.766 386.664 142.917 386.085 143.022C385.762 143.09 385.461 142.827 385.288 142.24C385.236 142.091 385.198 141.938 385.175 141.781C385.138 140.931 385.281 140.525 385.431 140.555C385.266 139.412 385.077 137.908 384.596 139.314L385.04 139.773C384.899 140.418 384.803 141.071 384.754 141.729C384.551 143.752 384.431 146.106 383.897 145.271C384.265 147.565 384.543 146.775 384.762 145.249C384.288 149.31 384.814 151.837 384.408 156.237C384.656 155.492 385.183 154.8 385.175 155.545C384.619 162.419 386.025 158.576 386.221 163.232C385.536 165.879 384.596 162.284 385.16 166.97C384.701 169.835 383.979 167.579 383.618 166.443C383.973 168.392 383.979 170.389 383.633 172.34C383.611 172.467 383.596 172.595 383.573 172.716C383.558 172.806 383.543 172.904 383.528 172.994L383.498 173.152C383.491 173.197 383.483 173.189 383.475 173.205L383.415 173.28C383.348 173.356 383.272 173.424 383.19 173.483C383.084 173.545 382.983 173.615 382.889 173.693C382.814 173.574 382.723 173.465 382.618 173.37C382.664 173.422 382.698 173.483 382.719 173.549C382.739 173.615 382.746 173.685 382.738 173.754C382.83 173.814 382.926 173.87 383.024 173.919C383.218 174.019 383.422 174.098 383.633 174.152C383.483 174.37 383.475 174.588 383.182 174.318C383.149 174.294 383.118 174.266 383.092 174.235C383.355 174.628 383.668 174.985 384.025 175.295C384.416 175.694 384.882 176.123 384.438 176.521C383.821 176.368 383.178 176.343 382.55 176.446C382.392 176.454 382.235 176.454 382.084 176.446C381.847 176.433 381.611 176.405 381.377 176.363C381.189 176.35 381.006 176.294 380.842 176.201C380.678 176.107 380.537 175.977 380.429 175.822C381.129 175.874 381.633 175.89 382.009 175.882C382.212 175.882 382.287 175.852 382.347 175.799C382.453 175.709 382.377 175.536 382.31 175.356C382.182 175.047 382.137 174.701 382.362 174.528C382.328 174.537 382.293 174.542 382.257 174.543C382.19 174.541 382.124 174.528 382.062 174.506C381.776 174.483 381.482 174.453 381.174 174.423C380.978 174.288 381.362 174.175 381.723 174.107C381.317 174.024 380.956 173.964 380.64 173.919C380.016 173.806 379.376 173.806 378.752 173.919C377.383 174.242 377.677 175.438 373.796 175.416C374.488 174.754 372.517 174.152 371.622 174.295C373.841 174.31 372.683 175.408 370.652 175.92C367.125 175.401 366.824 176.303 364.974 176.243L367.08 176.491C366.365 177.161 364.605 177.07 362.153 177.281C362.086 177.115 362.274 177.025 362.544 176.958C360.01 177.349 356.971 175.604 353.639 176.251C353.606 176.252 353.573 176.257 353.542 176.266C351.782 175.814 353.369 175.017 351.819 174.709C347.562 175.574 347.209 173.791 342.726 174.506C344.02 175.408 344.246 175.19 341.087 176.063L348.457 175.431L343.727 176.732C345.953 176.747 348.42 176.168 349.751 176.326C347.495 177.055 347.728 176.83 348.796 177.574C345.75 176.228 342.764 178.364 339.251 177.454L339.357 175.228C337.121 174.873 334.843 174.883 332.61 175.258L331.753 175.371L331.324 175.423L331.211 175.438L331.038 175.453L330.685 175.483C329.76 175.551 328.82 175.626 327.85 175.701C325.947 175.829 324.006 175.92 321.788 175.905C321.78 176.897 321.75 177.928 321.697 179.003L322.051 176.168L322.329 176.198C322.296 176.248 322.249 176.287 322.194 176.311C322.514 177.705 322.621 179.141 322.51 180.568C322.51 180.695 322.502 180.831 322.502 180.966V180.974C322.487 181.681 322.464 182.418 322.457 183.155C322.457 183.591 322.464 184.02 322.479 184.441C322.487 184.652 322.502 184.855 322.51 185.058L322.532 185.351L322.562 185.554C321.818 185.344 321.547 186.735 321.088 187.683C321.223 187.653 321.291 187.953 321.336 188.427C321.381 188.623 321.404 188.863 321.457 189.149C321.595 189.932 321.964 190.655 322.517 191.225C322.403 191.339 322.274 191.438 322.133 191.518C321.671 191.346 321.219 191.147 320.78 190.924C320.318 190.827 319.838 190.882 319.411 191.082C319.313 191.127 319.215 191.18 319.118 191.233C319.04 191.274 318.956 191.302 318.869 191.315C318.764 191.345 318.659 191.375 318.561 191.406C318.147 191.533 317.756 191.669 317.373 191.804C315.554 192.556 313.591 192.893 311.627 192.789C313.229 191.985 310.807 191.458 314.379 190.879C312.597 190.872 311.002 190.736 310.972 191.248C310.777 191.177 310.57 191.146 310.363 191.157C309.468 191.165 308.031 191.511 306.715 191.669C306.085 191.767 305.443 191.767 304.812 191.669C304.672 191.647 304.536 191.606 304.406 191.548C304.326 191.584 304.248 191.624 304.173 191.669C303.802 192.006 303.365 192.261 302.89 192.419C302.415 192.577 301.911 192.634 301.413 192.586C301.389 192.572 301.369 192.553 301.353 192.531C301.337 192.508 301.326 192.483 301.321 192.455C301.316 192.428 301.317 192.401 301.324 192.374C301.331 192.347 301.343 192.322 301.36 192.301C300.962 192.609 298.427 192.782 300.044 193.542C297.675 192.541 294.493 192.436 291.252 192.481C287.002 192.534 282.663 192.85 279.955 191.721C278.015 191.842 275.879 191.97 273.78 192.067C272.735 192.105 271.697 192.15 270.704 192.188C270.208 192.203 269.719 192.218 269.253 192.233C268.726 192.24 268.222 192.255 267.741 192.263C267.891 192.15 267.891 192.06 267.974 192.007C268.158 191.934 268.361 191.921 268.553 191.97C268.418 191.955 268.328 191.932 268.162 191.924C267.997 191.909 267.831 191.902 267.673 191.887C267.357 191.872 267.064 191.864 266.793 191.857C266.331 191.855 265.869 191.88 265.409 191.932C264.847 191.986 264.302 192.155 263.807 192.428C263.04 193.065 262.081 193.425 261.085 193.451C261.12 194.26 261.079 195.071 260.964 195.873C260.664 196.527 260.476 196.678 260.348 196.46C260.202 196.013 260.128 195.546 260.13 195.076C260.062 193.88 260.084 192.526 259.859 193.534C258.64 192.993 258.723 195.865 258.934 199.009C259.039 200.837 259.174 201.634 259.197 202.785C259.251 203.833 259.105 204.882 258.768 205.876L258.625 204.974C257.791 207.817 259.55 211.916 259.377 216.564C259.377 216.564 259.159 216.338 259.009 216.533C260.25 219.715 260.664 225.732 261.01 230.199C260.054 228.808 260.506 228.169 259.535 229.018C259.671 231.027 261.092 228.432 261.363 232.433C260.844 233.734 260.385 236.622 259.347 237.006L259.287 233.23C257.948 235.163 259.34 238.112 259.107 240.105L258.52 239.849C258.708 245.633 260.182 245.715 260.077 251.928L260.521 251.288C261.987 254.688 259.701 254.139 260.791 257.523L259.302 258.554C259.663 260.795 260.739 266.398 261.017 270.422C259.919 268.143 259.355 263.443 258.701 260.532C258.693 262.751 258.813 268.083 259.543 269.241C259.4 268.346 259.039 267.218 259.265 266.331C260.43 269.053 261.002 272.641 260.979 277.071C260.039 276.815 259.633 277.958 259.438 279.733C259.43 279.846 259.415 279.959 259.408 280.079C259.4 280.245 259.385 280.418 259.377 280.591C259.362 280.944 259.347 281.305 259.325 281.681C259.31 282.433 259.287 283.231 259.265 284.043C259.227 285.705 259.189 287.45 259.152 289.142C262.589 289.255 265.748 289.503 267.583 290.278L268.2 290.225L268.583 290.18L269.32 290.105C269.809 290.06 270.298 290.022 270.787 289.992C271.765 289.924 272.742 289.902 273.728 289.894C275.691 289.887 277.676 289.969 279.699 290.082C283.746 290.308 287.95 290.646 292.515 290.556C289.281 288.322 295.178 290.496 294.621 288.194C296.727 288.052 297.539 288.089 297.735 288.232L297.427 288.164C297.539 288.194 297.63 288.217 297.75 288.247V288.24L304.188 289.608C305.715 290.278 302.165 290.112 302.361 290.631C307.016 290.812 304.316 291.609 307.392 292.218C306.76 291.398 309.009 291.038 311.664 291.353L307.926 290.293C314.432 289.067 313.552 292.226 320.103 291.007L318.027 291.737C321.396 291.308 330.437 291.752 333.739 289.902C334.333 290.165 335.122 290.797 333.641 290.962C341.681 291.241 351.533 288.999 357.783 290.135L357.174 290.699C358.671 290.534 359.784 289.639 361.664 290.203C361.566 290.436 361.055 290.767 361.755 290.797C362.544 290.609 365.733 289.812 367.726 290.142L366.027 290.774C370.96 291.241 374.45 290.511 378 289.804C380.186 289.329 382.403 289.01 384.634 288.849C384.619 290.503 390.786 291.045 393.87 291.308L393.757 291.541C397.417 291.609 401.078 291.431 404.715 291.007C407.505 290.699 410.213 290.308 413.078 289.985H413.086C413.266 289.962 413.447 289.939 413.635 289.917C414.297 289.842 414.974 289.774 415.658 289.706C415.869 289.684 416.087 289.661 416.305 289.639C416.771 289.601 417.245 289.563 417.727 289.526C420.12 290.18 422.586 290.529 425.067 290.564C430.949 290.85 438.349 290.616 443.945 291.286C442.651 290.985 444.156 289.992 445.652 289.827C447.51 290.142 450.699 288.856 450.827 289.947C450.836 290.03 450.831 290.114 450.812 290.195L450.142 290.165H450.105L450.112 290.173C451.609 291.654 455.67 291.263 458.844 291.301L459.363 289.315C467.674 292.203 481.137 288.255 485.672 290.842C487.68 290.346 490.162 290.353 492.148 289.857L492.042 290.917C497.1 291.238 502.172 291.288 507.235 291.068L505.836 291.835C509.709 291.902 510.725 288.759 514.305 288.698L515.373 290.285C522.134 290.263 528.971 291.662 535.65 290.218C535.544 290.451 535.341 290.91 534.251 290.977C537.327 291.015 545.961 291.985 545.48 290.075C546.217 291.15 552.565 289.977 556.017 289.383L555.453 290.428C556.995 289.759 557.784 289.33 558.732 289.029C559.27 288.859 559.821 288.731 560.379 288.646C560.725 288.593 561.056 288.54 561.53 288.495C562.101 288.45 562.748 288.405 563.478 288.352C564.771 288.48 564.99 289.059 563.47 288.977C564.601 289.126 565.749 289.075 566.862 288.826C567.796 288.529 568.77 288.375 569.75 288.368C569.746 287.611 569.786 286.855 569.871 286.104C570.096 286.976 570.322 287.901 570.54 288.879C570.625 287.269 570.557 285.655 570.337 284.058C570.156 283.095 569.871 282.381 569.487 281.049C569.457 280.869 569.434 280.673 569.419 280.47C569.404 280.282 569.389 280.094 569.374 279.891C569.359 279.56 569.352 279.199 569.359 278.838C569.383 278.09 569.456 277.344 569.577 276.605C569.81 275.153 570.224 273.919 570.698 273.664C570.119 273.19 569.344 271.28 569.615 269.219C569.976 268.941 570.202 269.685 570.307 270.069C571.021 264.225 569.089 261.374 570.119 257.358C570.275 257.314 570.416 257.227 570.526 257.107C570.636 256.988 570.711 256.84 570.743 256.681C570.721 260.938 570.668 264.428 570.6 264.706C571.555 264.654 571.728 260.976 573.052 263.939C572.323 260.931 570.743 255.786 571.194 252.131ZM572.044 244.347C572.195 245.595 571.984 246.009 571.766 246.182C571.751 245.595 571.713 244.903 571.638 244.001C571.601 243.97 571.555 243.895 571.51 243.858C571.727 243.972 571.911 244.141 572.044 244.347ZM528.994 72.2188C529.12 72.2593 529.241 72.3149 529.355 72.3843H527.76C528.144 72.3241 528.55 72.2715 528.994 72.2188V72.2188Z" fill="#F9A826"/>
<path d="M382.55 174.438C382.502 174.491 382.434 174.524 382.362 174.528C382.419 174.488 382.483 174.457 382.55 174.438Z" fill="#7F77FF"/>
<path d="M362.545 176.961C362.603 176.952 362.661 176.938 362.719 176.926C362.658 176.936 362.6 176.948 362.545 176.961Z" fill="#7F77FF"/>
<path d="M570.655 242.113C570.618 241.944 570.593 241.772 570.578 241.6C570.484 241.854 570.405 242.096 570.34 242.342L570.672 242.782L570.655 242.113Z" fill="#7F77FF"/>
<path d="M449.501 112.381C449.53 112.257 449.581 112.139 449.652 112.033C449.601 112.144 449.568 112.144 449.526 112.215L449.501 112.381Z" fill="#7F77FF"/>
<path d="M502.066 71.1167C502.405 71.1249 502.789 71.6148 502.716 75.2135L502.942 70.7916L504.603 70.8717C503.262 70.4632 501.048 69.9142 504.113 69.8161C503.057 69.6929 502.252 69.5988 501.683 69.5325C501.431 71.653 501.726 71.1259 502.066 71.1167Z" fill="#7F77FF"/>
<path d="M502.124 89.5213C502.029 88.6786 501.88 88.655 501.727 88.7539C501.574 88.8612 501.415 89.0761 501.3 88.9711C501.672 89.9693 501.766 90.4532 502.124 89.5213Z" fill="#7F77FF"/>
<path d="M428.899 121.496L429.161 120.534C427.155 120.672 429.142 120.907 428.899 121.496Z" fill="#7F77FF"/>
<path d="M394.176 119.761L394.343 119.748L394.652 119.721L395.887 119.616L396.764 119.478L395.09 119.653L394.253 119.74L392.886 119.827L393.917 119.774L394.176 119.761Z" fill="#7F77FF"/>
<path d="M284.174 190.573L284.781 191.757C286.137 191.545 286.422 190.214 284.174 190.573Z" fill="#7F77FF"/>
<path d="M259.413 251.225C259.051 251.899 258.829 252.64 258.762 253.402C258.695 254.165 258.783 254.933 259.022 255.66C259.104 253.891 259.565 252.126 259.413 251.225Z" fill="#7F77FF"/>
<path d="M461.731 291.207L464.714 290.877L463.314 290.811L461.731 291.207Z" fill="#7F77FF"/>
<path d="M476.361 194.121C476.179 203.245 474.904 212.315 472.563 221.136C463.447 254.831 438.507 279.35 425.067 290.564C422.586 290.529 420.12 290.18 417.727 289.526C417.245 289.563 416.771 289.601 416.305 289.639C416.087 289.661 415.869 289.684 415.658 289.706C414.974 289.774 414.297 289.842 413.635 289.917C413.447 289.939 413.267 289.962 413.086 289.984H413.079C408.731 278.614 405.612 266.812 403.775 254.778L403.767 254.771V254.763C401.443 239.33 401.067 221.219 405.964 203.123C408.061 195.465 410.963 188.051 414.62 181.004C432.099 147.084 462.327 126.875 462.327 126.875C462.327 126.875 477.264 157.553 476.361 194.121Z" fill="white"/>
<path d="M384.408 156.237C384.386 156.538 384.363 156.816 384.325 157.154C384.252 156.848 384.281 156.526 384.408 156.237Z" fill="white"/>
<path d="M362.717 176.927C362.988 176.876 363.252 176.798 363.507 176.694C364.056 176.837 363.304 176.83 362.717 176.927Z" fill="white"/>
<path d="M363.763 176.108L364.974 176.243C364.567 176.231 364.162 176.186 363.763 176.108Z" fill="white"/>
<path d="M381.851 174.13C381.809 174.118 381.766 174.11 381.723 174.107C381.836 174.092 381.949 174.069 382.039 174.062C382.054 174.047 382.062 174.039 382.069 174.039C382.077 174.039 382.077 174.047 382.062 174.062C382.062 174.069 382.054 174.077 382.047 174.084C382.047 174.099 381.934 174.114 381.851 174.13Z" fill="white"/>
<path d="M382.55 174.438C382.502 174.491 382.434 174.524 382.362 174.528C382.419 174.488 382.483 174.457 382.55 174.438Z" fill="white"/>
<path d="M425.496 254.718C425.496 254.733 425.488 254.748 425.488 254.763C423.669 266.68 420.59 278.371 416.305 289.639C416.087 289.661 415.869 289.684 415.658 289.706C414.974 289.774 414.297 289.842 413.635 289.917C413.447 289.939 413.266 289.962 413.086 289.985H413.078C410.213 290.308 407.505 290.699 404.715 291.007C391.41 280.004 365.929 255.282 356.7 221.136C354.352 212.314 353.074 203.241 352.895 194.113C352.758 188.149 353.006 182.183 353.639 176.251C356.971 175.604 360.01 177.349 362.544 176.958C362.273 177.025 362.085 177.115 362.153 177.281C364.605 177.07 366.365 177.161 367.079 176.491L364.974 176.243C366.824 176.303 367.125 175.401 370.652 175.92C372.683 175.408 373.841 174.31 371.622 174.295C372.517 174.152 374.488 174.754 373.796 175.416C377.677 175.438 377.383 174.242 378.752 173.919H380.64C380.956 173.964 381.317 174.024 381.723 174.107C381.362 174.175 380.978 174.288 381.174 174.423C381.482 174.453 381.776 174.483 382.061 174.506C382.124 174.528 382.19 174.541 382.257 174.543C382.293 174.543 382.328 174.537 382.362 174.528C382.137 174.701 382.182 175.047 382.31 175.356C382.377 175.536 382.453 175.709 382.347 175.799C382.287 175.852 382.212 175.882 382.009 175.882C381.633 175.89 381.129 175.875 380.429 175.822C380.537 175.977 380.677 176.107 380.841 176.201C381.006 176.294 381.189 176.35 381.377 176.363C381.611 176.405 381.847 176.433 382.084 176.446C382.234 176.454 382.392 176.454 382.55 176.446C383.178 176.343 383.82 176.368 384.438 176.521C384.882 176.123 384.416 175.694 384.024 175.295C383.668 174.985 383.355 174.628 383.092 174.235C383.118 174.266 383.149 174.294 383.182 174.318C383.475 174.588 383.483 174.37 383.633 174.152C383.422 174.098 383.218 174.02 383.024 173.919H383.573V172.716C383.596 172.595 383.611 172.467 383.633 172.34C383.978 170.389 383.973 168.392 383.618 166.443C383.979 167.579 384.701 169.835 385.16 166.97C384.596 162.284 385.536 165.879 386.221 163.232C386.025 158.576 384.619 162.419 385.175 155.545C385.183 154.8 384.656 155.492 384.408 156.237C384.814 151.837 384.288 149.31 384.762 145.249C384.543 146.775 384.265 147.565 383.897 145.271C384.431 146.106 384.551 143.752 384.754 141.729C384.927 141.894 385.107 142.067 385.288 142.24C385.551 142.496 385.822 142.759 386.085 143.022C395.457 152.221 406.445 165.097 414.62 181.004C414.621 181.004 414.622 181.004 414.623 181.004C414.624 181.005 414.625 181.005 414.626 181.006C414.626 181.007 414.627 181.008 414.627 181.009C414.628 181.009 414.628 181.01 414.628 181.011C418.292 188.054 421.197 195.466 423.292 203.123C428.181 221.204 427.812 239.285 425.496 254.718Z" fill="white"/>
<path d="M321.088 187.683C320.984 187.938 320.825 188.166 320.622 188.352C320.847 187.856 320.975 187.705 321.088 187.683Z" fill="#3F3D56"/>
<path d="M301.421 192.218C301.418 192.236 301.412 192.253 301.401 192.267C301.391 192.282 301.377 192.293 301.36 192.301C301.39 192.255 301.421 192.218 301.421 192.218Z" fill="#3F3D56"/>
<path d="M413.635 289.917C413.447 289.939 413.267 289.962 413.086 289.984H413.079C410.213 290.308 407.505 290.699 404.715 291.007C401.078 291.431 397.417 291.609 393.757 291.541L393.87 291.308C390.786 291.045 384.619 290.503 384.634 288.849C382.403 289.01 380.186 289.329 378 289.804C361.732 284.509 342.786 275.544 327.286 260.457C305.437 239.195 295.577 210.787 291.252 192.481C294.494 192.436 297.675 192.541 300.044 193.542C298.427 192.782 300.962 192.609 301.36 192.3C301.343 192.322 301.331 192.347 301.324 192.374C301.317 192.4 301.316 192.428 301.321 192.455C301.326 192.483 301.337 192.508 301.353 192.531C301.369 192.553 301.389 192.572 301.413 192.586C301.912 192.634 302.415 192.577 302.89 192.419C303.365 192.261 303.802 192.006 304.173 191.669H310.363V191.157C310.57 191.146 310.777 191.177 310.972 191.248C311.002 190.736 312.597 190.872 314.379 190.879C310.807 191.458 313.229 191.985 311.627 192.789C313.591 192.893 315.555 192.556 317.373 191.804C317.756 191.669 318.147 191.533 318.561 191.406C318.659 191.375 318.764 191.345 318.869 191.315C318.956 191.302 319.04 191.274 319.118 191.233C319.215 191.18 319.313 191.127 319.411 191.082C319.838 190.882 320.318 190.827 320.78 190.924C321.22 191.147 321.672 191.346 322.134 191.518C322.274 191.438 322.403 191.339 322.517 191.225C321.964 190.655 321.595 189.932 321.457 189.149C321.404 188.863 321.381 188.623 321.336 188.427C321.291 187.953 321.224 187.652 321.088 187.683C321.547 186.735 321.818 185.343 322.562 185.554L322.532 185.351L322.51 185.058C322.502 184.855 322.487 184.652 322.48 184.441C322.465 184.02 322.457 183.591 322.457 183.155C322.465 182.418 322.487 181.681 322.502 180.974C333.092 184.205 343.287 188.612 352.895 194.113C361.066 198.797 368.627 204.474 375.406 211.013C388.974 224.22 397.916 240.18 403.768 254.763V254.771L403.775 254.778C408.31 266.104 411.616 277.885 413.635 289.917Z" fill="#3F3D56"/>
<path d="M450.105 290.165H450.142C450.133 290.17 450.123 290.173 450.112 290.173L450.105 290.165Z" fill="#3F3D56"/>
<path d="M541.193 174.137C541.193 174.137 536.921 226.439 501.978 260.457C486.334 275.687 467.193 284.675 450.827 289.947C450.699 288.856 447.51 290.143 445.652 289.827C444.156 289.992 442.651 290.985 443.945 291.286C438.349 290.616 430.949 290.849 425.067 290.564C422.586 290.529 420.12 290.18 417.727 289.526C417.245 289.563 416.771 289.601 416.305 289.639C416.087 289.661 415.869 289.684 415.658 289.706C417.685 277.727 420.982 265.998 425.496 254.718C431.362 240.15 440.305 224.205 453.85 211.021C460.628 204.48 468.189 198.804 476.361 194.121C507.664 175.965 541.193 174.137 541.193 174.137Z" fill="#3F3D56"/>
<path d="M49.5208 143.952C49.5208 143.952 39.0452 164.903 22.8558 169.665C6.66632 174.426 61.9009 169.665 61.9009 169.665C61.9009 169.665 59.044 154.428 62.8533 152.523C66.6625 150.618 49.5208 143.952 49.5208 143.952Z" fill="#A0616A"/>
<path d="M32.5951 107.958C32.0254 102.994 34.7404 98.6053 38.6593 98.1555C38.7037 98.1504 38.7475 98.1529 38.7918 98.1489C38.3019 98.0768 37.8048 98.0687 37.3128 98.1247C33.3939 98.5744 30.6789 102.963 31.2486 107.927C31.8119 112.835 35.3757 116.46 39.2435 116.107C35.926 115.626 33.0922 112.289 32.5951 107.958Z" fill="#2F2E41"/>
<path d="M36.1079 114.689C31.3753 113.086 28.5643 108.758 29.8295 105.022C29.8439 104.98 29.8648 104.941 29.8801 104.899C29.6059 105.311 29.3865 105.758 29.2272 106.226C27.962 109.963 30.773 114.291 35.5056 115.893C40.1845 117.477 44.9839 115.801 46.3149 112.152C44.4637 114.947 40.2372 116.087 36.1079 114.689Z" fill="#2F2E41"/>
<path d="M3.36182 206.467L4.76164 246.803L26.665 298.228C26.665 298.228 20.9511 324.893 32.379 323.941C43.8068 322.988 33.3313 297.276 33.3313 297.276L22.8558 242.993L20.9511 198.234L3.36182 206.467Z" fill="#A0616A"/>
<path d="M64.758 158.237C76.3289 158.237 85.709 148.857 85.709 137.286C85.709 125.715 76.3289 116.335 64.758 116.335C53.187 116.335 43.8069 125.715 43.8069 137.286C43.8069 148.857 53.187 158.237 64.758 158.237Z" fill="#A0616A"/>
<path d="M81.8996 173.474L61.2524 165.225C61.2524 165.225 57.1392 165.855 45.7114 166.808C34.2835 167.76 29.2093 166.862 29.2093 166.862C29.2093 166.862 4.76156 175.379 5.71388 180.14C6.6662 184.902 17.1417 260.135 21.9034 256.326C26.665 252.517 29.5219 251.564 29.5219 251.564L81.8996 246.803V173.474Z" fill="#CFCCE0"/>
<path d="M9.52322 178.236H6.42404C6.42404 178.236 2.85696 180.14 2.85696 185.854C2.85696 191.568 0 208.71 0 208.71H15.2371L9.52322 178.236Z" fill="#CFCCE0"/>
<path d="M37.6166 187.283L26.1142 168.702C25.8523 168.279 25.4744 167.94 25.0255 167.725C24.5765 167.51 24.0754 167.429 23.5816 167.491L20.5821 167.866C20.2133 167.912 19.8586 168.036 19.5421 168.231C19.2255 168.426 18.9544 168.687 18.7471 168.995C18.5397 169.304 18.401 169.653 18.3401 170.02C18.2793 170.386 18.2979 170.762 18.3945 171.121L24.2841 192.997C24.2841 192.997 33.5965 231.642 24.6549 252.317L24.2841 261.564C24.2841 261.564 15.7132 290.133 17.6178 312.037C19.5224 333.94 20.4748 352.986 20.4748 352.986C20.4748 352.986 15.7132 367.271 17.6178 372.033C18.1892 373.461 18.0749 375.576 17.635 377.835C14.9495 391.629 14.2562 405.737 14.6358 419.785L14.7609 424.411C14.7609 424.411 8.09458 430.124 13.8085 431.077C19.5225 432.029 37.6166 433.934 37.6166 433.934C37.6166 433.934 41.4259 427.267 39.5212 426.315L45.2351 394.889C45.2351 394.889 54.7584 381.556 53.806 372.985C53.806 372.985 56.663 358.7 53.806 352.034L54.7584 310.132L58.5676 360.605L52.8537 423.458C52.8537 423.458 45.2352 429.172 49.9968 431.077C54.7584 432.981 84.2803 442.505 84.2803 437.743C84.2803 432.982 82.3757 431.077 82.3757 431.077L94.7559 302.513L88.0896 249.183C88.0896 249.183 43.3305 245.374 47.1398 194.901C47.1398 194.901 58.0902 172.158 68.9001 167.867C69.0229 167.821 69.1281 167.738 69.2009 167.629C69.2736 167.52 69.3101 167.391 69.3051 167.26C69.3001 167.129 69.2539 167.003 69.1731 166.9C69.0923 166.797 68.981 166.722 68.8551 166.686L64.4666 165.432C64.347 165.396 64.2194 165.399 64.1013 165.439C62.197 166.084 45.686 172.04 37.6166 187.283Z" fill="#2F2E41"/>
<path d="M59.5202 430.125L59.368 431.494C58.3438 440.218 55.5075 448.632 51.0409 456.195C48.9086 459.86 47.276 464 48.0923 467.265C49.9969 474.884 49.0446 477.741 49.0446 477.741H64.2818V474.884L72.7888 477.204C74.6858 477.751 76.7068 477.689 78.5666 477.026C80.4712 476.312 82.3759 474.884 82.3759 472.027C82.3759 469.646 80.5572 467.43 78.4354 465.656C73.9621 461.987 70.7213 457.035 69.15 451.467L69.0434 451.076L74.7573 430.125L59.5202 430.125Z" fill="#2F2E41"/>
<path d="M19.9987 430.601L19.8466 431.97C18.8223 440.694 15.986 449.108 11.5194 456.672C9.38709 460.336 7.75455 464.476 8.57082 467.741C10.4755 475.36 9.52314 478.217 9.52314 478.217H24.7603V475.36L33.2673 477.68C35.1643 478.228 37.1853 478.165 39.0451 477.503C40.9497 476.788 42.8544 475.36 42.8544 472.503C42.8544 470.122 41.0357 467.907 38.914 466.132C34.4406 462.463 31.1998 457.511 29.6286 451.943L29.5219 451.552L35.2358 430.601H19.9987Z" fill="#2F2E41"/>
<path d="M68.9869 140.821C68.9869 140.821 83.9951 132.15 89.8069 131.625C89.8069 131.625 91.4992 127.815 89.6743 124.149C89.6743 124.149 88.7888 112.389 74.1087 112.845C74.1087 112.845 56.77 103.453 50.9492 107.288C45.1284 111.122 32.1676 129.523 37.6422 140.521C37.6422 140.521 31.3135 143.705 31.0124 141.991C30.7112 140.277 26.0097 144.881 32.217 148.847C32.217 148.847 23.5285 157.643 31.9742 163.148C31.9742 163.148 31.5877 155.347 36.487 152.988C41.3864 150.63 37.0983 153.107 37.0983 153.107C37.0983 153.107 28.711 163.617 41.238 167.708C41.238 167.708 36.5634 162.384 41.265 157.78C41.265 157.78 39.8087 168.534 48.4702 169.666C48.4702 169.666 44.0023 163.279 46.3531 160.977C46.3531 160.977 47.351 168.896 52.2413 169.847L55.9091 170.56L57.1497 164.179C57.1497 164.179 53.6617 172.331 61.8153 172.812C61.8153 172.812 57.8733 160.457 63.0918 153.194C68.3104 145.932 68.9869 140.821 68.9869 140.821Z" fill="#2F2E41"/>
<path d="M45.6912 113.981C48.7079 109.998 48.6043 104.838 45.4597 102.456C42.3152 100.075 37.3205 101.373 34.3038 105.356C31.2871 109.339 31.3907 114.499 34.5352 116.88C37.6798 119.262 42.6745 117.964 45.6912 113.981Z" fill="#2F2E41"/>
<path d="M47.7728 109.212C45.8781 109.93 44.2294 111.177 43.023 112.805C41.9499 114.2 41.2351 115.837 40.9414 117.573C42.8361 116.856 44.4848 115.609 45.6912 113.981C46.7643 112.585 47.4791 110.948 47.7728 109.212Z" fill="#F9A826"/>
<path d="M120.483 290.621L119.273 289.007L128.054 282.427C129.096 281.644 129.914 280.6 130.424 279.4C130.934 278.201 131.12 276.888 130.961 275.594L126.612 240.468C126.299 237.917 126.664 235.33 127.67 232.966C128.676 230.601 130.287 228.544 132.341 227.001L141.912 219.829C143.727 218.471 146.007 217.89 148.251 218.211C150.495 218.533 152.52 219.731 153.882 221.544L156.098 224.502L154.484 225.711L152.268 222.753C151.227 221.368 149.68 220.452 147.965 220.207C146.251 219.961 144.509 220.406 143.121 221.443L133.551 228.615C131.781 229.945 130.392 231.718 129.526 233.755C128.659 235.792 128.344 238.022 128.613 240.219L132.963 275.346C133.165 276.992 132.929 278.663 132.28 280.19C131.63 281.716 130.59 283.044 129.264 284.041L120.483 290.621Z" fill="#CFCCE0"/>
<path d="M123.615 293.598L130.774 284.17L128.354 280.942L117.62 285.599L70.7639 317.976L79.0583 329.045L123.615 293.598Z" fill="#CFCCE0"/>
<path d="M157.363 219.413L148.323 226.187C145.852 228.039 145.35 231.542 147.202 234.013L189.141 289.98C190.993 292.451 194.497 292.953 196.967 291.102L206.007 284.328C208.478 282.476 208.98 278.972 207.128 276.502L165.189 220.535C163.337 218.064 159.833 217.562 157.363 219.413Z" fill="#E6E6E6"/>
<path opacity="0.2" d="M207.129 276.503L205.833 274.773L205.574 274.427C206.014 275.014 206.334 275.683 206.516 276.394C206.698 277.105 206.738 277.845 206.634 278.571C206.53 279.298 206.284 279.997 205.909 280.628C205.535 281.26 205.04 281.811 204.453 282.251L195.411 289.027C194.225 289.916 192.734 290.297 191.267 290.087C189.8 289.877 188.476 289.092 187.587 287.906L187.846 288.252L189.142 289.981C190.031 291.168 191.355 291.952 192.822 292.162C194.29 292.373 195.78 291.991 196.967 291.102L206.008 284.327C207.194 283.438 207.979 282.114 208.189 280.647C208.399 279.18 208.018 277.689 207.129 276.503Z" fill="black"/>
<path d="M180.309 239.554C180.231 239.477 180.165 239.415 180.163 239.449C180.238 239.539 180.287 239.563 180.309 239.554Z" fill="#7F77FF"/>
<path d="M178.888 237.309C178.88 237.256 178.851 237.207 178.809 237.175L178.888 237.309Z" fill="#7F77FF"/>
<path d="M189.114 251.493C189.03 251.52 189.191 251.699 189.297 251.871L189.114 251.493Z" fill="#7F77FF"/>
<path d="M193.537 257.186L193.613 257.286C193.66 257.298 193.709 257.305 193.758 257.307L193.537 257.186Z" fill="#7F77FF"/>
<path d="M196.333 261.354C196.384 261.354 196.435 261.364 196.481 261.384C196.528 261.405 196.571 261.434 196.606 261.471C196.649 261.436 196.681 261.39 196.696 261.337C196.633 261.237 196.436 261.333 196.333 261.354Z" fill="#7F77FF"/>
<path d="M205.005 273.401L204.963 273.475C204.988 273.507 205.017 273.536 205.049 273.562L205.005 273.401Z" fill="#7F77FF"/>
<path d="M176.141 233.153L176.151 233.173C176.246 233.26 176.2 233.205 176.141 233.153Z" fill="#7F77FF"/>
<path d="M150.749 241.439C150.603 240.922 151.436 241.943 151.156 241.21C151.13 241.317 150.475 240.864 150.749 241.439Z" fill="#7F77FF"/>
<path d="M169.381 224.348C169.367 224.396 169.364 224.447 169.373 224.496C169.388 224.479 169.395 224.443 169.381 224.348Z" fill="#7F77FF"/>
<path d="M165.835 221.801C165.713 221.877 165.605 221.974 165.517 222.087C165.537 222.084 165.557 222.077 165.575 222.067C165.636 221.957 165.726 221.865 165.835 221.801Z" fill="#7F77FF"/>
<path d="M162.315 225.115C162.345 225.11 162.376 225.102 162.405 225.093L162.503 224.991L162.315 225.115Z" fill="#7F77FF"/>
<path d="M205.213 273.577C205.094 273.722 204.86 273.91 204.755 273.847L204.963 273.475C204.948 273.458 204.935 273.438 204.92 273.42C204.934 273.402 204.947 273.386 204.96 273.368L201.975 269.384L202.053 269.389L201.915 269.305L201.537 268.8C201.585 268.789 201.647 268.804 201.736 268.893C201.583 268.424 201.397 268.63 201.298 268.203C201.293 268.151 201.317 268.158 201.352 268.183L201.002 267.875C201.109 267.906 201.137 267.679 201.268 267.931C200.924 267.164 200.284 267.017 200.293 266.625L200.349 266.668C199.775 266.036 199.917 266.378 199.72 266.375L199.401 265.949L199.483 265.396L199.228 265.448C199.164 265.349 199.039 265.152 199.14 265.13C198.749 264.877 199.103 265.251 198.829 265.139C198.662 264.559 197.816 263.953 198.038 263.627C197.774 263.572 198.252 264.142 197.792 263.734C198.01 263.355 197.318 263.217 197.157 262.694C197.418 262.696 197.623 263.153 197.462 262.629C196.994 262.59 196.921 261.779 196.606 261.471C196.37 261.622 195.945 260.784 195.433 260.255C195.129 259.635 194.786 259.035 194.405 258.459L194.455 258.447C194.15 258.511 193.772 257.918 193.42 257.545C193.567 257.46 193.675 257.493 193.901 257.669L193.613 257.286C193.421 257.217 193.254 257.093 193.132 256.929L193.373 256.899C192.863 256.412 192.41 255.868 192.024 255.277C191.898 255.332 191.917 255.697 191.749 255.738L191.488 255.39C191.527 255.373 191.569 255.37 191.61 255.38C191.651 255.389 191.687 255.412 191.714 255.444C191.658 255.393 191.484 255.284 191.431 255.137L191.782 255.307C191.621 254.961 191.545 255.241 191.379 254.991C191.504 254.905 191.333 254.749 191.455 254.711C191.513 254.764 191.561 254.958 191.678 255.014C191.501 254.762 191.384 254.474 191.336 254.17C191.285 254.246 191.172 254.293 191.009 254.107C190.617 253.603 191.024 253.823 190.863 253.478C190.686 253.417 190.529 253.026 190.341 253.154C190.23 253.003 190.294 252.912 190.3 252.818C190.021 252.613 189.351 251.6 189.381 252.043L189.419 252.12L189.379 252.083C188.549 251.351 188.133 250.205 187.411 249.404L187.473 249.359C187.075 248.867 186.639 248.405 186.17 247.979C186.057 247.827 186.013 247.538 186.134 247.548C185.807 247.279 185.546 246.94 185.368 246.555C185.77 246.871 185.36 246.349 185.749 246.902C185.419 246.353 185.43 246.164 184.854 245.741C185.149 245.811 184.762 245.211 184.534 245.003L184.69 245.444C184.486 245.205 184.299 244.953 184.13 244.688L184.433 244.665C183.9 243.435 182.6 243.101 182.421 241.994C182.071 241.826 182.745 242.637 182.393 242.515C182.179 242.074 182.003 241.615 181.868 241.144C181.489 240.402 181.109 240.755 180.671 240.009C180.664 240.151 180.532 240.38 180.077 239.918C179.745 239.417 179.941 239.098 180.227 239.357C180.32 239.468 180.338 239.541 180.31 239.554C180.452 239.69 180.636 239.87 180.573 239.62L180.453 239.613C180.349 239.319 179.846 238.664 180.082 238.729C179.741 238.418 179.846 238.664 180.01 238.961C179.654 238.266 179.292 237.996 178.888 237.309C178.923 237.44 178.907 237.597 178.832 237.496C178.226 236.498 178.387 237.19 177.883 236.584C177.726 236.143 178.245 236.513 177.676 235.949C177.461 235.505 177.808 235.722 177.983 235.831C177.573 235.4 177.254 234.89 177.045 234.333L177.332 234.593C177.185 234.454 177.052 234.301 176.937 234.135L176.921 234.418C176.812 234.221 176.699 234.069 176.763 234.027C176.529 233.914 176.626 234.35 176.221 234.082C176.117 233.788 175.598 233.416 175.73 233.189C176.225 233.987 175.862 232.96 176.369 233.571C176.234 233.439 176.121 233.286 176.034 233.117C176.036 233.074 176.093 233.113 176.141 233.153C175.777 232.306 175.675 232.988 175.123 232.241C175.303 232.254 175.201 231.914 175.086 231.81C175.309 232.111 175.012 232.09 174.722 231.878C174.45 231.337 174.271 231.407 174.094 231.15L174.267 231.465C174.086 231.45 173.921 231.201 173.638 230.895C173.702 230.803 173.923 231.153 173.871 231.006C173.403 230.781 173.445 230.024 172.931 229.606C172.826 229.313 173.119 229.43 173.012 229.183C172.438 228.712 172.694 228.446 172.123 227.928C172.107 228.213 172.166 228.216 171.703 227.897L172.552 228.816L171.86 228.336C172.083 228.639 172.428 228.902 172.538 229.1C172.19 228.886 172.25 228.889 172.236 229.125C172.148 228.548 171.496 228.405 171.289 227.818L171.663 227.561C171.289 226.724 170.525 226.43 169.921 225.434L170.081 225.779C169.843 225.763 169.632 225.221 169.348 224.965C169.49 224.902 169.394 224.681 169.373 224.496C169.295 224.579 168.872 223.81 168.566 223.908L168.416 223.373C167.955 222.621 167.335 222.651 166.733 221.762C166.859 221.794 166.856 221.676 166.879 221.603C166.905 221.533 166.959 221.511 167.274 221.833C166.988 221.449 166.73 221.059 166.707 221.204C166.687 221.156 166.661 221.111 166.63 221.069L166.577 221C166.557 220.98 166.532 221.038 166.508 221.056L166.184 221.456C166.025 221.699 165.818 221.907 165.575 222.067C165.468 222.265 165.503 222.453 165.19 222.741C165.137 222.751 165.144 222.682 165.144 222.682C165.158 222.776 164.808 223.145 165.136 223.065C164.144 223.361 163.28 224.862 162.405 225.093C161.954 225.567 161.397 226.124 160.952 226.515C160.951 226.456 160.904 226.457 160.999 226.396C160.289 226.821 160.904 227.058 160.085 227.534C159.563 227.649 160.38 227.116 160.093 227.234C159.675 226.932 159.276 228.007 158.601 228.166L158.7 228.049C158.226 228.217 157.909 228.922 157.266 229.368C157.266 229.368 157.269 229.31 157.224 229.305C156.782 229.951 156.241 230.523 155.62 230.998C155.697 230.704 155.838 230.717 155.606 230.638C155.348 230.855 155.873 230.839 155.355 231.275C155.115 231.315 154.665 231.519 154.49 231.378L155.002 231.006C154.583 230.972 154.336 231.48 154.032 231.628L154 231.505C153.224 232.082 153.372 232.332 152.485 232.883L152.624 232.901C152.302 233.462 152.129 233.011 151.762 233.501L151.457 233.331C150.974 233.802 150.458 234.24 149.914 234.64C150.275 234.191 150.676 233.776 151.112 233.399C150.673 233.623 150.277 233.922 149.94 234.281C150.056 234.181 150.182 234.021 150.333 233.987C149.973 234.5 149.486 234.91 148.92 235.178C148.865 234.876 148.219 235.168 147.436 235.551L147.14 235.696L146.99 235.769C146.941 235.794 146.862 235.812 146.926 235.863C147.047 236.035 147.163 236.206 147.265 236.369C147.446 236.623 147.575 236.912 147.644 237.217C147.81 237.405 147.974 237.591 148.137 237.777C148.246 237.901 148.35 238.03 148.451 238.163C148.651 238.427 148.839 238.706 149.025 238.993C149.398 239.568 149.77 240.179 150.246 240.785C150.284 240.073 150.527 241.138 150.846 240.78C151.082 241.046 151.158 241.16 151.156 241.205L151.127 241.135L151.156 241.21L151.157 241.209L151.584 242.248C151.63 242.536 151.297 242.036 151.232 242.126C151.675 242.777 151.27 242.51 151.483 243.001C151.553 242.815 151.839 243.075 152.057 243.473L151.852 242.837C152.711 243.567 152.106 243.834 152.968 244.572L152.64 244.381C153.051 244.783 153.895 246.061 154.532 246.28C154.548 246.393 154.525 246.577 154.348 246.397C155.117 247.518 156.483 248.576 156.93 249.561L156.777 249.547C156.955 249.73 157.214 249.771 157.312 250.094C157.264 250.11 157.159 250.081 157.224 250.179C157.507 250.372 157.749 250.619 157.937 250.906L157.661 250.754C158.335 251.905 159.133 252.193 159.862 253.035C159.59 253.236 160.127 254.136 160.395 254.586L160.346 254.6C161.197 255.659 162.119 256.659 163.106 257.593C163.344 258.524 164.785 260.09 165.475 261.355C165.394 261.143 165.707 261.225 165.886 261.408C166.032 261.716 166.629 262.007 166.349 262.151L166.282 262.052C166.19 262.436 166.667 262.938 166.982 263.372L167.36 263.2C167.73 264.678 169.74 266.014 169.777 266.945C170.061 267.155 170.312 267.492 170.594 267.7L170.409 267.816C170.869 268.539 171.376 269.231 171.925 269.889L171.658 269.793C172.04 270.326 172.656 270.079 173.029 270.554L172.878 270.894C173.566 271.805 174.031 272.901 174.944 273.628C174.895 273.642 174.799 273.671 174.678 273.531C174.994 273.966 175.749 275.327 175.989 274.903C175.765 275.088 176.673 275.863 177.145 276.28L176.916 276.332C177.347 276.474 177.728 276.737 178.014 277.089C178.095 277.244 177.967 277.313 177.874 277.097C178.128 277.623 178.304 277.333 178.631 277.958L178.366 277.833C178.437 277.969 178.536 278.089 178.655 278.186C178.775 278.283 178.912 278.356 179.06 278.399C179.351 278.644 179.689 279.328 179.586 279.514C179.72 279.536 179.847 279.591 179.956 279.673C180.065 279.754 180.153 279.86 180.212 279.983C180.182 280.064 180.07 279.99 180.014 279.952C180.489 280.83 181.094 280.978 181.333 281.648C181.312 281.67 181.298 281.698 181.292 281.727C181.286 281.757 181.289 281.788 181.299 281.816C180.833 281.185 180.463 280.673 180.511 280.711C180.353 280.829 180.706 281.357 180.185 281.117C180.768 281.474 181.277 281.939 181.686 282.487C181.691 282.523 181.689 282.559 181.68 282.594L181.624 282.556C181.689 282.671 181.778 282.771 181.884 282.849C181.958 283.004 182.045 283.153 182.143 283.294C182.056 283.451 182.509 283.929 182.692 284.186C182.849 284.036 183.069 284.388 182.98 283.971C182.997 284.02 182.923 283.938 182.79 283.775C182.76 283.741 182.727 283.709 182.691 283.681L182.719 283.687L182.237 283.067C182.372 283.128 182.494 283.216 182.594 283.326C182.694 283.436 182.77 283.565 182.818 283.706C183.027 283.752 183.248 283.81 183.362 283.85C183.38 284.377 183.75 285.142 183.67 285.346C184.008 285.696 184.365 286.138 184.724 286.524C184.896 286.712 185.08 286.889 185.272 287.057C185.45 287.249 185.664 287.404 185.902 287.513C186 287.606 186.069 287.725 186.1 287.856C186.131 287.968 186.179 287.957 186.235 287.988C186.181 288.022 186.122 288.047 186.061 288.066L185.947 287.94C185.892 287.871 185.825 287.813 185.75 287.767C185.903 287.868 186.006 288.24 186.302 288.005L187.067 287.694C187.244 287.628 187.414 287.542 187.573 287.438C187.683 287.362 187.754 287.285 187.76 287.207C188.456 287.068 187.486 287.597 188.365 287.197L188.276 287.326C190.24 287.031 190.814 285.474 192.901 284.968C192.756 285.008 192.684 285.028 192.635 285.001C194.875 284.058 196.648 282.167 198.692 280.955C199.263 280.587 199.187 280.389 199.399 280.015L199.662 280.089L199.996 279.422C200.563 278.599 201.628 278.626 202.219 277.448L201.993 277.459C202.326 277.155 202.87 276.337 202.959 276.514C202.949 276.455 202.959 276.395 202.987 276.342C203.014 276.288 203.058 276.246 203.111 276.219L203.213 276.288C203.403 275.965 203.578 275.632 203.76 275.307C204.368 274.699 204.059 275.725 204.855 274.752C205.105 274.352 205.385 273.487 205.213 273.577ZM201.083 268.137C201.089 268.158 201.091 268.181 201.09 268.203L200.937 267.999C200.984 268.043 201.031 268.085 201.083 268.137ZM182.437 283.641L182.473 283.645C182.428 283.656 182.381 283.655 182.336 283.643C182.186 283.493 182.178 283.412 182.196 283.362C182.258 283.439 182.334 283.528 182.437 283.641V283.641Z" fill="#F9A826"/>
<path d="M182.79 283.776C182.813 283.794 182.835 283.814 182.855 283.835C182.845 283.792 182.833 283.748 182.818 283.706L182.719 283.687L182.79 283.776Z" fill="#7F77FF"/>
<path d="M189.368 252.017C189.376 252.038 189.38 252.06 189.379 252.083C189.378 252.069 189.379 252.056 189.381 252.043L189.368 252.017Z" fill="#7F77FF"/>
<path d="M199.15 264.739C198.73 263.764 199.128 265.022 198.512 264.143L198.953 264.836C198.934 264.671 198.911 264.453 199.15 264.739Z" fill="#7F77FF"/>
<path d="M197.232 261.952C197.004 261.774 196.948 261.732 197.086 262.038C197.381 262.367 197.18 261.962 197.232 261.952Z" fill="#7F77FF"/>
<path d="M186.084 247.355L186.268 247.273C186.042 247.018 186.205 247.316 186.084 247.355Z" fill="#7F77FF"/>
<path d="M183.157 242.762L182.761 242.351L183.046 242.659L183.157 242.762Z" fill="#7F77FF"/>
<path d="M162.773 224.445L163.011 224.555C163.149 224.369 163 224.136 162.773 224.445Z" fill="#7F77FF"/>
<path d="M151.839 233.029C152.072 232.939 152.296 232.83 152.511 232.704C152.381 232.701 152.253 232.729 152.136 232.785C152.019 232.842 151.917 232.925 151.839 233.029Z" fill="#7F77FF"/>
<path d="M167.291 263.751L167.646 264.114L167.516 263.917L167.291 263.751Z" fill="#7F77FF"/>
<path d="M69.072 203.61L70.4718 243.946L92.3752 295.371C92.3752 295.371 86.6613 322.036 98.0891 321.084C109.517 320.131 99.0415 294.419 99.0415 294.419L88.5659 240.136L86.6613 195.377L69.072 203.61Z" fill="#A0616A"/>
<path d="M77.1381 175.378L77.6616 171.781L81.8995 173.474L95.2321 194.425L67.6145 208.71L77.1381 175.378Z" fill="#CFCCE0"/>
</g>
<defs>
<clipPath id="clip0">
<rect y="-0.000488281" width="680" height="483.214" fill="white"/>
</clipPath>
</defs>
</svg>
