<svg width="680" height="376" viewBox="0 0 680 376" fill="none" xmlns="http://www.w3.org/2000/svg">
<path d="M155.074 171.6L157.468 176.547C157.468 176.547 171.055 194.679 162.661 197.52C154.268 200.36 149.815 180.322 149.815 180.322L147.596 177.518L155.074 171.6Z" fill="#FFB8B8"/>
<path d="M139.424 77.9366L141.657 76.9917C141.657 76.9917 144.3 77.9366 144.3 82.0001C144.3 86.0637 141.049 145.392 141.049 145.392L147.551 177.9L138.611 179.526L124.795 149.455L139.424 77.9366Z" fill="#575A89"/>
<path d="M139.424 77.9366L141.657 76.9917C141.657 76.9917 144.3 77.9366 144.3 82.0001C144.3 86.0637 141.049 145.392 141.049 145.392L158.522 173.43L147.145 181.557L124.795 149.455L139.424 77.9366Z" fill="#575A89"/>
<path d="M137.798 172.211C137.798 172.211 148.364 176.275 147.551 183.589C146.738 190.904 136.173 336.379 136.173 336.379L139.424 352.634L108.541 353.446L107.728 248.606L85.7847 353.446H54.9016L76.8449 168.96L137.798 172.211Z" fill="#2F2E41"/>
<path d="M135.36 349.383L142.675 356.697C142.675 356.697 159.742 359.948 155.678 365.637C151.614 371.326 109.353 364.011 109.353 364.011L110.166 351.008L135.36 349.383Z" fill="#2F2E41"/>
<path d="M82.5339 349.383L89.8483 356.697C89.8483 356.697 106.915 359.948 102.852 365.637C98.7882 371.326 56.5271 364.011 56.5271 364.011L57.3398 351.008L82.5339 349.383Z" fill="#2F2E41"/>
<path d="M111.791 48.6789C122.564 48.6789 131.297 39.9462 131.297 29.1738C131.297 18.4014 122.564 9.6687 111.791 9.6687C101.019 9.6687 92.2864 18.4014 92.2864 29.1738C92.2864 39.9462 101.019 48.6789 111.791 48.6789Z" fill="#FFB8B8"/>
<path d="M123.982 40.5515L122.357 73.8728L97.1627 59.2444L100.413 40.5515H123.982Z" fill="#FFB8B8"/>
<path d="M96.3503 51.1169L119.919 68.1842L123.982 55.9931L131.296 75.4984L127.233 110.445L96.3503 51.1169Z" fill="#CFCCE0"/>
<path d="M96.3499 48.679L122.357 84.4383L123.299 54.5658L131.297 60.8696V67.3714L142.675 77.9366L138.611 118.572L137.798 166.522C137.798 166.522 142.675 170.586 141.049 173.024C139.424 175.462 132.922 181.151 125.608 181.151C118.293 181.151 72.7812 175.462 72.7812 172.211C72.7812 168.961 74.4067 126.699 74.4067 126.699V69.8095L93.9118 55.1807L96.3499 48.679Z" fill="#575A89"/>
<path d="M71.1556 183.589L81.7211 199.031L85.7848 181.151L80.9087 177.9L71.1556 183.589Z" fill="#FFB8B8"/>
<path opacity="0.2" d="M122.407 206.876L106.783 249.196L108.308 249.759L123.932 207.439L122.407 206.876Z" fill="black"/>
<path d="M100.007 10.0749C100.007 10.0749 102.445 -2.11574 116.261 0.322398L114.636 1.1351C114.636 1.1351 127.639 -0.490322 126.014 6.8241C126.014 6.8241 136.579 13.3258 134.141 20.6402C132.707 24.8796 131.62 29.2283 130.89 33.6436L128.452 31.2055C128.452 31.2055 126.014 14.9512 111.385 16.5767C100.414 17.7957 95.9436 22.9768 94.8007 26.7102C94.2745 28.4656 93.6029 30.1741 92.7928 31.818L91.88 32.0182C91.88 32.0182 87.0037 14.1385 100.007 10.0749Z" fill="#2F2E41"/>
<path d="M83.3466 68.9967L75.9482 68.6533L74.4067 69.8094C72.6375 71.5776 71.0072 73.4795 69.5305 75.4984C67.905 77.9366 46.7745 137.265 46.7745 137.265C46.3824 140.868 46.9429 144.511 48.3999 147.83C50.8381 153.519 70.3432 187.653 70.3432 187.653L84.972 178.713L65.4669 138.89L79.283 119.385L83.3466 68.9967Z" fill="#575A89"/>
<path d="M559.641 323.985V345.876H572.775L574.527 323.985H559.641Z" fill="#A0616A"/>
<path d="M590.726 325.299L595.979 337.558L604.736 341.06L606.487 316.543L599.482 313.041L590.726 325.299Z" fill="#A0616A"/>
<path d="M602.109 335.807C602.109 335.807 601.366 330.279 593.857 332.605L595.104 348.941C595.104 348.941 588.974 367.329 597.731 365.578C606.487 363.827 611.741 347.19 611.741 347.19L617.87 319.17L603.068 314.834L602.109 335.807Z" fill="#2F2E41"/>
<path d="M546.945 150.174C546.945 150.174 534.686 242.99 539.064 253.498C543.442 264.005 589.412 331.866 589.412 331.866L609.552 305.598L564.457 249.12L606.487 191.329L609.989 156.304L546.945 150.174Z" fill="#2F2E41"/>
<path d="M595.103 183.448L606.663 189.565L606.487 191.328L578.029 333.617L556.138 329.239L570.586 228.98L595.103 183.448Z" fill="#2F2E41"/>
<path d="M558.328 339.309L553.074 347.19C553.074 347.19 541.691 366.453 553.95 366.453C566.208 366.453 571.462 366.453 572.338 362.075C572.98 359.092 573.859 356.164 574.965 353.319L574.089 341.936L558.328 339.309Z" fill="#2F2E41"/>
<path d="M592.477 49.4776C603.116 49.4776 611.741 40.853 611.741 30.2139C611.741 19.5749 603.116 10.9502 592.477 10.9502C581.838 10.9502 573.213 19.5749 573.213 30.2139C573.213 40.853 581.838 49.4776 592.477 49.4776Z" fill="#A0616A"/>
<path d="M576.716 36.3433C576.716 36.3433 579.343 51.2289 571.462 53.8557C563.581 56.4826 581.094 91.5075 581.094 91.5075L601.233 58.2339C601.233 58.2339 595.98 46.8507 599.482 41.597L576.716 36.3433Z" fill="#A0616A"/>
<path d="M581.094 76.6219L576.341 48.0876L567.084 53.8557L542.566 67.8657L552.198 109.02L548.696 134.413C548.696 134.413 544.318 142.294 545.193 145.796C546.069 149.299 544.318 151.05 545.193 151.926C546.069 152.801 589.85 159.806 602.984 165.06C616.119 170.314 617.87 172.065 616.994 167.687C616.119 163.309 606.487 142.294 606.487 142.294L614.367 107.269L624.875 76.6219L599.366 53.0805L581.094 76.6219Z" fill="#575A89"/>
<path d="M618.746 115.149L624.875 131.786L609.114 160.682L603.971 164.682C603.159 165.314 602.55 166.17 602.22 167.145C601.89 168.12 601.854 169.17 602.116 170.165L605.611 183.448L614.773 169.842C614.773 169.842 639.761 139.667 638.885 131.786C638.009 123.906 635.382 111.647 635.382 111.647L618.746 115.149Z" fill="#A0616A"/>
<path d="M532.059 101.14L527.681 123.03L511.044 164.185C511.044 164.185 492.656 181.697 501.412 185.2C510.168 188.702 520.676 167.687 520.676 167.687L541.691 128.284L549.571 104.642L532.059 101.14Z" fill="#A0616A"/>
<path d="M615.243 74.8709L622.292 74.238L624.875 76.6221C624.875 76.6221 639.761 109.896 638.009 113.398C636.258 116.901 618.746 118.652 618.746 118.652L611.741 97.6371L615.243 74.8709Z" fill="#575A89"/>
<path d="M548.696 68.7415L544.352 66.8457L542.566 67.8659C542.566 67.8659 525.054 102.891 529.432 104.642C533.81 106.393 554.825 109.02 554.825 109.02L548.696 68.7415Z" fill="#575A89"/>
<path opacity="0.2" d="M567.084 253.285L561.746 290.326L556.777 282.694L567.084 253.285Z" fill="black"/>
<path d="M604.998 18.8057C604.998 18.8057 606.938 23.9123 597.933 21.2945C597.933 21.2945 594.366 23.0336 594.573 20.0655C594.573 20.0655 589.656 24.6927 588.721 21.6448C587.785 18.5968 585.223 22.3945 585.223 22.3945L583.283 17.2879L580.789 20.0962L572.789 19.537C572.789 19.537 571.886 -0.409978 599.178 3.48595C626.469 7.38188 610.784 37.7896 610.784 37.7896C610.784 37.7896 610.957 32.1467 608.463 34.955C605.97 37.7633 604.998 18.8057 604.998 18.8057Z" fill="#2F2E41"/>
<path d="M161.565 176.075V260.156H512.795V176.075H161.565ZM372.002 246.049H183.29V234.198H372.002V246.049ZM372.002 224.041H183.29V212.19H372.002V224.041ZM491.069 202.033H183.29V190.183H491.069V202.033Z" fill="#F9A826"/>
<path d="M355.145 138.961H307.744V91.5598H339.909V92.6891H308.872V137.833H354.016V115.261H355.145V138.961Z" fill="#3F3D56"/>
<path d="M331.2 126.597C330.105 123.363 316.368 112.368 324.786 110.52L331.688 119.724L363.424 87.989L366.616 91.1808L331.2 126.597Z" fill="#F9A826"/>
</svg>
