<svg width="637" height="419" viewBox="0 0 637 419" fill="none" xmlns="http://www.w3.org/2000/svg">
<g clip-path="url(#clip0)">
<path d="M486.118 0.527214C485.519 0.527844 484.944 0.766708 484.52 1.19138C484.096 1.61606 483.858 2.19186 483.857 2.79244V91.5862C483.858 92.1868 484.096 92.7626 484.52 93.1873C484.944 93.612 485.519 93.8508 486.118 93.8514H589.642C590.242 93.8508 590.816 93.612 591.24 93.1873C591.664 92.7626 591.903 92.1868 591.903 91.5862V2.79246C591.903 2.19188 591.664 1.61608 591.24 1.19141C590.816 0.76673 590.242 0.527868 589.642 0.527236L486.118 0.527214Z" fill="#E6E6E6"/>
<path d="M500.475 53.9727C500.251 54.0185 500.049 54.1407 499.904 54.3185C499.759 54.4964 499.68 54.719 499.68 54.9486C499.68 55.1782 499.759 55.4008 499.904 55.5787C500.049 55.7565 500.251 55.8787 500.475 55.9245H576.215C576.44 55.8787 576.642 55.7565 576.787 55.5787C576.932 55.4008 577.011 55.1782 577.011 54.9486C577.011 54.719 576.932 54.4964 576.787 54.3185C576.642 54.1407 576.44 54.0185 576.215 53.9727H500.475Z" fill="white"/>
<path d="M499.545 65.5692C499.32 65.615 499.118 65.7372 498.973 65.915C498.828 66.0929 498.749 66.3155 498.749 66.5451C498.749 66.7747 498.828 66.9973 498.973 67.1752C499.118 67.353 499.32 67.4752 499.545 67.521H575.284C575.509 67.4752 575.711 67.353 575.856 67.1752C576.001 66.9973 576.08 66.7747 576.08 66.5451C576.08 66.3155 576.001 66.0929 575.856 65.915C575.711 65.7372 575.509 65.615 575.284 65.5692H499.545Z" fill="white"/>
<path d="M500.475 77.1657C500.251 77.2115 500.049 77.3337 499.904 77.5115C499.759 77.6894 499.68 77.912 499.68 78.1416C499.68 78.3712 499.759 78.5938 499.904 78.7716C500.049 78.9495 500.251 79.0717 500.475 79.1175H576.215C576.44 79.0717 576.642 78.9495 576.787 78.7716C576.932 78.5938 577.011 78.3712 577.011 78.1416C577.011 77.912 576.932 77.6894 576.787 77.5115C576.642 77.3337 576.44 77.2115 576.215 77.1657H500.475Z" fill="white"/>
<path d="M500.475 15.2611C500.251 15.307 500.049 15.4293 499.904 15.6071C499.759 15.785 499.68 16.0077 499.68 16.2373C499.68 16.467 499.759 16.6896 499.904 16.8675C500.049 17.0454 500.251 17.1676 500.475 17.2135H576.215C576.44 17.1676 576.642 17.0454 576.787 16.8675C576.932 16.6896 577.011 16.467 577.011 16.2373C577.011 16.0077 576.932 15.785 576.787 15.6071C576.642 15.4293 576.44 15.307 576.215 15.2611H500.475Z" fill="white"/>
<path d="M499.545 26.8577C499.32 26.9035 499.118 27.0258 498.973 27.2037C498.828 27.3815 498.749 27.6042 498.749 27.8339C498.749 28.0635 498.828 28.2862 498.973 28.464C499.118 28.6419 499.32 28.7642 499.545 28.81H575.284C575.509 28.7642 575.711 28.6419 575.856 28.464C576.001 28.2862 576.08 28.0635 576.08 27.8339C576.08 27.6042 576.001 27.3815 575.856 27.2037C575.711 27.0258 575.509 26.9035 575.284 26.8577H499.545Z" fill="white"/>
<path d="M500.476 38.4541C500.251 38.5 500.049 38.6223 499.904 38.8002C499.759 38.978 499.68 39.2007 499.68 39.4303C499.68 39.66 499.759 39.8826 499.904 40.0605C500.049 40.2384 500.251 40.3606 500.476 40.4065H576.215C576.44 40.3606 576.642 40.2384 576.787 40.0605C576.932 39.8826 577.011 39.66 577.011 39.4303C577.011 39.2007 576.932 38.978 576.787 38.8002C576.642 38.6223 576.44 38.5 576.215 38.4541H500.476Z" fill="white"/>
<path d="M439.846 36.8372C439.246 36.8378 438.671 37.0767 438.247 37.5013C437.824 37.926 437.585 38.5018 437.584 39.1024V127.896C437.585 128.497 437.824 129.073 438.247 129.497C438.671 129.922 439.246 130.161 439.846 130.161H543.37C543.969 130.161 544.544 129.922 544.968 129.497C545.392 129.073 545.63 128.497 545.631 127.896V39.1024C545.63 38.5018 545.392 37.926 544.968 37.5013C544.544 37.0767 543.969 36.8378 543.37 36.8372H439.846Z" fill="#F9A826"/>
<path d="M454.203 90.2827C453.978 90.3285 453.776 90.4507 453.631 90.6285C453.486 90.8064 453.407 91.0289 453.407 91.2586C453.407 91.4882 453.486 91.7108 453.631 91.8886C453.776 92.0665 453.978 92.1887 454.203 92.2345H529.943C530.167 92.1887 530.369 92.0665 530.514 91.8886C530.659 91.7108 530.739 91.4882 530.739 91.2586C530.739 91.0289 530.659 90.8064 530.514 90.6285C530.369 90.4507 530.167 90.3285 529.943 90.2827H454.203Z" fill="white"/>
<path d="M453.272 101.879C453.047 101.925 452.846 102.047 452.701 102.225C452.556 102.403 452.476 102.625 452.476 102.855C452.476 103.085 452.556 103.307 452.701 103.485C452.846 103.663 453.047 103.785 453.272 103.831H529.012C529.236 103.785 529.438 103.663 529.583 103.485C529.728 103.307 529.808 103.085 529.808 102.855C529.808 102.625 529.728 102.403 529.583 102.225C529.438 102.047 529.236 101.925 529.012 101.879H453.272Z" fill="white"/>
<path d="M454.203 113.476C453.978 113.522 453.776 113.644 453.631 113.822C453.486 113.999 453.407 114.222 453.407 114.452C453.407 114.681 453.486 114.904 453.631 115.082C453.776 115.259 453.978 115.382 454.203 115.427H529.943C530.167 115.382 530.369 115.259 530.514 115.082C530.659 114.904 530.739 114.681 530.739 114.452C530.739 114.222 530.659 113.999 530.514 113.822C530.369 113.644 530.167 113.522 529.943 113.476H454.203Z" fill="white"/>
<path d="M454.203 51.5711C453.978 51.617 453.776 51.7392 453.631 51.9171C453.486 52.095 453.407 52.3176 453.407 52.5473C453.407 52.777 453.486 52.9996 453.631 53.1775C453.776 53.3554 453.978 53.4776 454.203 53.5235H529.943C530.167 53.4776 530.369 53.3554 530.514 53.1775C530.659 52.9996 530.739 52.777 530.739 52.5473C530.739 52.3176 530.659 52.095 530.514 51.9171C530.369 51.7392 530.167 51.617 529.943 51.5711H454.203Z" fill="white"/>
<path d="M453.272 63.1676C453.047 63.2135 452.846 63.3357 452.701 63.5136C452.556 63.6915 452.476 63.9141 452.476 64.1438C452.476 64.3735 452.556 64.5961 452.701 64.774C452.846 64.9519 453.047 65.0741 453.272 65.12H529.012C529.237 65.0741 529.439 64.9519 529.584 64.774C529.729 64.5961 529.808 64.3735 529.808 64.1438C529.808 63.9141 529.729 63.6915 529.584 63.5136C529.439 63.3357 529.237 63.2135 529.012 63.1676H453.272Z" fill="white"/>
<path d="M454.203 74.7641C453.978 74.81 453.776 74.9322 453.631 75.1101C453.486 75.288 453.407 75.5106 453.407 75.7403C453.407 75.97 453.486 76.1926 453.631 76.3705C453.776 76.5484 453.978 76.6706 454.203 76.7165H529.943C530.167 76.6706 530.369 76.5484 530.514 76.3705C530.659 76.1926 530.739 75.97 530.739 75.7403C530.739 75.5106 530.659 75.288 530.514 75.1101C530.369 74.9322 530.167 74.81 529.943 74.7641H454.203Z" fill="white"/>
<path d="M586.091 368.075L586.634 378.404L598.028 377.316L596.943 366.989L586.091 368.075Z" fill="#FBBEBE"/>
<path d="M542.139 356.116L542.682 366.445L554.077 365.357L552.992 355.029L542.139 356.116Z" fill="#FBBEBE"/>
<path d="M593.959 227.556L552.72 234.623L550.007 309.639L539.155 357.475L556.519 365.086L573.339 317.793L579.308 275.936L583.649 317.793L584.192 370.522L610.779 368.891L604.423 265.635C603.605 252.353 600.042 239.386 593.959 227.556V227.556Z" fill="#2F2E41"/>
<path d="M587.719 374.599C587.719 374.599 583.92 370.25 583.92 371.881C583.92 373.511 581.75 389.276 581.75 389.276C581.75 389.276 596.4 393.625 596.4 396.343C596.4 399.061 617.562 403.409 617.019 397.973C616.477 392.537 598.028 371.881 598.028 371.881C598.028 371.881 590.432 370.794 587.719 374.599Z" fill="#2F2E41"/>
<path d="M544.428 362.705C544.428 362.705 543.271 357.044 542.467 358.462C541.662 359.88 531.999 372.509 531.999 372.509C531.999 372.509 542.589 383.544 541.249 385.906C539.908 388.269 556.159 402.527 558.369 397.533C560.579 392.539 554.731 365.447 554.731 365.447C554.731 365.447 548.664 360.741 544.428 362.705Z" fill="#2F2E41"/>
<path d="M543.596 167.631L573.636 170.509L583.649 143.172L554.891 136.231L543.596 167.631Z" fill="#2F2E41"/>
<path d="M568.185 162.052C576.576 162.052 583.378 155.238 583.378 146.832C583.378 138.425 576.576 131.611 568.185 131.611C559.794 131.611 552.992 138.425 552.992 146.832C552.992 155.238 559.794 162.052 568.185 162.052Z" fill="#FBBEBE"/>
<path d="M559.503 156.073C559.503 156.073 559.503 166.401 551.364 170.75C543.225 175.099 570.898 179.991 570.898 179.991L573.611 170.75C573.611 170.75 565.472 166.945 572.526 158.247L559.503 156.073Z" fill="#FBBEBE"/>
<path d="M572.526 168.032C572.526 168.032 562.588 174.199 554.263 168.669L550.821 168.032L540.512 170.206L535.628 188.689L554.077 234.894C554.077 234.894 586.091 240.33 592.602 228.371L588.804 179.447L578.494 166.945L572.526 168.032Z" fill="#575A89"/>
<path d="M577.409 168.576L595.315 143.57L593.688 140.852L570.355 128.893V121.282L606.71 131.067L609.17 134.972L587.718 181.622L577.409 168.576Z" fill="#575A89"/>
<path d="M541.597 170.75L540.512 170.206L513.381 169.119L534.001 151.18L527.489 143.027L496.561 166.401V171.837L540.512 190.319L541.597 170.75Z" fill="#575A89"/>
<path d="M527.218 145.473L531.016 143.298C531.016 143.298 539.155 132.426 542.411 136.775C545.667 141.124 534.815 149.278 534.815 149.278L528.846 151.452L527.218 145.473Z" fill="#FBBEBE"/>
<path d="M571.983 122.913L566.015 119.652C566.015 119.652 548.109 121.283 550.279 125.088C552.449 128.893 564.929 125.631 564.929 125.631L571.983 127.806V122.913Z" fill="#FBBEBE"/>
<path d="M556.521 132.141C556.521 132.141 549.547 134.47 549.193 143.668C549.157 145.139 549.32 146.608 549.677 148.035C550.07 149.703 550.322 153.29 547.279 157.978C545.241 161.074 543.38 164.282 541.703 167.587L541.681 167.631L549.341 168.59L550.969 155.871C551.759 149.704 553.451 143.688 555.99 138.015L556.043 137.896C556.043 137.896 559.394 144.131 566.096 144.131L563.702 141.733C563.702 141.733 574.234 146.049 578.064 146.049C578.064 146.049 580.936 147.968 578.064 150.845C575.191 153.723 569.447 160.437 572.798 165.713C576.149 170.988 573.277 172.427 573.277 172.427L578.542 169.549L580.936 168.111V170.029L593.383 168.59C593.383 168.59 596.734 168.111 589.553 159.958C589.553 159.958 587.657 156.792 588.486 154.061C589.168 151.986 589.347 149.778 589.009 147.619C587.4 138.628 581.089 120.754 556.521 132.141Z" fill="#2F2E41"/>
<path d="M119.838 141.02C119.463 141.021 119.103 141.17 118.838 141.436C118.573 141.702 118.423 142.062 118.423 142.438V250.765C118.423 251.141 118.573 251.502 118.838 251.768C119.103 252.033 119.463 252.183 119.838 252.183H366.669C367.044 252.183 367.404 252.033 367.669 251.768C367.934 251.502 368.084 251.141 368.084 250.765V142.438C368.083 142.062 367.934 141.702 367.669 141.436C367.404 141.17 367.044 141.021 366.669 141.02H119.838Z" fill="#E6E6E6"/>
<path d="M333.267 162.392H153.24C153.016 162.392 152.795 162.349 152.589 162.263C152.382 162.178 152.195 162.053 152.037 161.895C151.878 161.737 151.753 161.549 151.667 161.342C151.582 161.136 151.538 160.914 151.538 160.69C151.538 160.467 151.582 160.245 151.667 160.038C151.753 159.832 151.878 159.644 152.037 159.486C152.195 159.328 152.382 159.203 152.589 159.117C152.795 159.032 153.016 158.988 153.24 158.989H333.267C333.717 158.99 334.148 159.169 334.466 159.488C334.784 159.807 334.962 160.24 334.962 160.69C334.962 161.141 334.784 161.573 334.466 161.892C334.148 162.211 333.717 162.391 333.267 162.392Z" fill="white"/>
<path d="M333.267 176.004H153.24C152.789 176.004 152.357 175.824 152.039 175.505C151.72 175.186 151.541 174.753 151.541 174.302C151.541 173.851 151.72 173.418 152.039 173.099C152.357 172.78 152.789 172.601 153.24 172.601H333.267C333.718 172.601 334.15 172.78 334.468 173.099C334.787 173.418 334.966 173.851 334.966 174.302C334.966 174.753 334.787 175.186 334.468 175.505C334.15 175.824 333.718 176.004 333.267 176.004Z" fill="white"/>
<path d="M333.267 189.615H153.24C153.016 189.616 152.795 189.572 152.589 189.487C152.382 189.402 152.195 189.276 152.037 189.118C151.878 188.96 151.753 188.772 151.667 188.566C151.582 188.359 151.538 188.138 151.538 187.914C151.538 187.69 151.582 187.469 151.667 187.262C151.753 187.055 151.878 186.868 152.037 186.71C152.195 186.551 152.382 186.426 152.589 186.341C152.795 186.256 153.016 186.212 153.24 186.212H333.267C333.717 186.213 334.148 186.393 334.466 186.712C334.784 187.031 334.962 187.463 334.962 187.914C334.962 188.365 334.784 188.797 334.466 189.116C334.148 189.435 333.717 189.614 333.267 189.615Z" fill="white"/>
<path d="M333.267 203.124H153.24C152.789 203.124 152.357 202.945 152.039 202.626C151.72 202.307 151.541 201.874 151.541 201.423C151.541 200.971 151.72 200.539 152.039 200.219C152.357 199.9 152.789 199.721 153.24 199.721H333.267C333.718 199.721 334.15 199.9 334.468 200.219C334.787 200.539 334.966 200.971 334.966 201.423C334.966 201.874 334.787 202.307 334.468 202.626C334.15 202.945 333.718 203.124 333.267 203.124Z" fill="white"/>
<path d="M333.267 216.736H153.24C153.016 216.736 152.795 216.693 152.589 216.607C152.382 216.522 152.195 216.397 152.037 216.239C151.878 216.081 151.753 215.893 151.667 215.686C151.582 215.48 151.538 215.258 151.538 215.034C151.538 214.811 151.582 214.589 151.667 214.382C151.753 214.176 151.878 213.988 152.037 213.83C152.195 213.672 152.382 213.547 152.589 213.461C152.795 213.376 153.016 213.332 153.24 213.333H333.267C333.718 213.333 334.15 213.512 334.468 213.831C334.787 214.15 334.966 214.583 334.966 215.034C334.966 215.486 334.787 215.918 334.468 216.238C334.15 216.557 333.718 216.736 333.267 216.736Z" fill="white"/>
<path d="M287.571 228.062C287.442 228.062 287.319 228.114 287.228 228.205C287.137 228.296 287.086 228.419 287.086 228.548V241.428C287.086 241.556 287.137 241.68 287.228 241.771C287.319 241.862 287.442 241.913 287.571 241.914H332.541C332.67 241.913 332.793 241.862 332.884 241.771C332.975 241.68 333.026 241.556 333.026 241.428V228.548C333.026 228.419 332.975 228.296 332.884 228.205C332.793 228.114 332.67 228.062 332.541 228.062H287.571Z" fill="white"/>
<path d="M41.2301 251.936C41.2301 251.936 37.5171 296.662 36.7199 306.246C36.1733 312.254 34.8329 318.163 32.7339 323.817C31.7798 325.818 31.2375 327.991 31.1395 330.206V370.938C31.1395 370.938 27.9506 370.938 28.7478 374.133C29.545 377.327 30.3422 382.918 30.3422 382.918H42.3004C42.3004 382.918 41.5032 380.522 43.8948 379.723C46.2864 378.925 43.8948 372.535 43.8948 372.535L56.6502 324.615L75.7833 284.682C75.7833 284.682 86.9442 320.622 89.3358 324.615C89.3358 324.615 98.1051 369.341 99.6996 373.334C101.294 377.327 102.091 377.327 101.294 378.925C100.497 380.522 100.497 382.119 101.294 382.918C102.091 383.717 117.238 382.918 117.238 382.918L113.252 326.213L106.077 258.326L69.4056 247.145L41.2301 251.936Z" fill="#2F2E41"/>
<path d="M39.1116 376.529C39.1116 376.529 35.1256 362.153 28.7479 373.334C22.3702 384.515 22.3702 388.509 22.3702 388.509C22.3702 388.509 12.0065 403.683 26.3563 402.086C40.706 400.489 37.5172 393.301 37.5172 393.301C37.5172 393.301 43.0977 390.106 43.0977 387.71C43.0977 385.314 39.1116 376.529 39.1116 376.529Z" fill="#2F2E41"/>
<path d="M103.686 374.931C103.686 374.931 107.672 360.555 114.05 371.737C120.427 382.918 120.427 386.911 120.427 386.911C120.427 386.911 130.791 402.086 116.441 400.489C102.091 398.891 105.28 391.703 105.28 391.703C105.28 391.703 99.6997 388.509 99.6997 386.113C99.6997 383.717 103.686 374.931 103.686 374.931Z" fill="#2F2E41"/>
<path d="M66.2167 144.117C66.2167 144.117 67.8111 154.5 63.0278 156.896C58.2446 159.292 73.3916 168.077 77.3776 168.077C81.3637 168.077 88.5386 160.09 88.5386 160.09C88.5386 160.09 84.5525 148.111 85.3497 145.715L66.2167 144.117Z" fill="#FFB9B9"/>
<path d="M74.986 152.104C84.2321 152.104 91.7275 144.595 91.7275 135.332C91.7275 126.069 84.2321 118.56 74.986 118.56C65.74 118.56 58.2446 126.069 58.2446 135.332C58.2446 144.595 65.74 152.104 74.986 152.104Z" fill="#FFB9B9"/>
<path d="M107.672 169.675L87.742 157.578C87.742 157.578 76.4026 170.473 64.1348 156.097L43.0976 161.688L46.2864 215.997C46.2864 215.997 41.5032 237.561 43.0976 241.554C44.692 245.548 39.1115 247.145 40.706 247.944C42.3004 248.742 40.706 254.333 40.706 254.333C40.706 254.333 71.7972 270.306 106.077 258.326L102.888 247.944C103.322 246.586 103.404 245.141 103.125 243.743C102.846 242.346 102.216 241.043 101.294 239.957C101.294 239.957 104.483 235.165 100.497 231.172C100.497 231.172 102.091 223.984 98.1051 220.789L97.3079 209.608L99.6995 204.017L107.672 169.675Z" fill="#CFCCE0"/>
<path d="M66.4182 127.544C66.4182 127.544 64.4223 131.871 72.406 130.141C72.406 130.141 75.3999 131.871 75.3999 129.275C75.3999 129.275 79.3917 133.602 80.3896 131.006C81.3876 128.41 83.3835 131.871 83.3835 131.871L85.3794 127.544L87.3754 130.141H94.3611C94.3611 130.141 96.357 112.831 72.406 114.562C48.455 116.293 60.2376 143.718 60.2376 143.718C60.2376 143.718 60.4305 138.795 62.4264 141.392C64.4223 143.988 66.4182 127.544 66.4182 127.544Z" fill="#2F2E41"/>
<path d="M114.847 201.621L115.644 218.393C115.644 218.393 118.833 249.541 112.455 263.118V270.306C112.455 270.306 110.861 288.676 102.888 287.877C94.9163 287.078 105.28 261.521 105.28 261.521L103.686 226.38L102.091 206.413L114.847 201.621Z" fill="#FFB9B9"/>
<path d="M98.9025 170.473L106.855 169.179C112.584 174.693 116.486 181.835 118.036 189.641C120.427 202.42 121.224 204.816 121.224 204.816L102.091 209.608L91.7275 189.641L98.9025 170.473Z" fill="#CFCCE0"/>
<path d="M65.5218 175.205C65.1465 175.205 64.7868 175.355 64.5214 175.62C64.2561 175.886 64.1068 176.247 64.1064 176.622V284.95C64.1068 285.325 64.256 285.686 64.5214 285.952C64.7867 286.218 65.1465 286.367 65.5218 286.367H312.352C312.727 286.367 313.087 286.218 313.352 285.952C313.618 285.686 313.767 285.325 313.767 284.95V176.622C313.767 176.247 313.618 175.886 313.352 175.62C313.087 175.355 312.727 175.205 312.352 175.205H65.5218Z" fill="#F9A826"/>
<path d="M278.951 196.576H98.9232C98.4733 196.575 98.0423 196.395 97.7245 196.076C97.4067 195.757 97.2283 195.325 97.2283 194.875C97.2283 194.424 97.4067 193.992 97.7245 193.673C98.0423 193.354 98.4733 193.174 98.9232 193.173H278.951C279.401 193.173 279.833 193.352 280.152 193.671C280.47 193.99 280.649 194.423 280.649 194.875C280.649 195.326 280.47 195.759 280.152 196.078C279.833 196.397 279.401 196.576 278.951 196.576Z" fill="white"/>
<path d="M278.951 210.188H98.9232C98.4733 210.187 98.0423 210.007 97.7245 209.688C97.4067 209.369 97.2283 208.937 97.2283 208.486C97.2283 208.036 97.4067 207.603 97.7245 207.284C98.0423 206.965 98.4733 206.786 98.9232 206.785H278.951C279.401 206.785 279.833 206.964 280.152 207.283C280.47 207.602 280.649 208.035 280.649 208.486C280.649 208.938 280.47 209.37 280.152 209.689C279.833 210.009 279.401 210.188 278.951 210.188Z" fill="white"/>
<path d="M278.951 223.8H98.9232C98.4733 223.799 98.0423 223.619 97.7245 223.3C97.4067 222.981 97.2283 222.549 97.2283 222.098C97.2283 221.647 97.4067 221.215 97.7245 220.896C98.0423 220.577 98.4733 220.398 98.9232 220.397H278.951C279.174 220.396 279.395 220.44 279.602 220.525C279.808 220.61 279.996 220.736 280.154 220.894C280.312 221.052 280.437 221.24 280.523 221.446C280.609 221.653 280.653 221.874 280.653 222.098C280.653 222.322 280.609 222.543 280.523 222.75C280.437 222.957 280.312 223.144 280.154 223.302C279.996 223.461 279.808 223.586 279.602 223.671C279.395 223.756 279.174 223.8 278.951 223.8Z" fill="white"/>
<path d="M278.951 237.308H98.9232C98.4733 237.307 98.0423 237.128 97.7245 236.809C97.4067 236.49 97.2283 236.058 97.2283 235.607C97.2283 235.156 97.4067 234.724 97.7245 234.405C98.0423 234.086 98.4733 233.906 98.9232 233.905H278.951C279.174 233.905 279.395 233.949 279.602 234.034C279.808 234.119 279.996 234.244 280.154 234.403C280.312 234.561 280.437 234.748 280.523 234.955C280.609 235.162 280.653 235.383 280.653 235.607C280.653 235.831 280.609 236.052 280.523 236.259C280.437 236.465 280.312 236.653 280.154 236.811C279.996 236.969 279.808 237.095 279.602 237.18C279.395 237.265 279.174 237.309 278.951 237.308Z" fill="white"/>
<path d="M278.95 250.92H98.923C98.4725 250.92 98.0406 250.741 97.7221 250.422C97.4035 250.103 97.2246 249.67 97.2246 249.219C97.2246 248.767 97.4035 248.335 97.7221 248.016C98.0406 247.696 98.4725 247.517 98.923 247.517H278.95C279.401 247.517 279.833 247.696 280.151 248.016C280.47 248.335 280.649 248.767 280.649 249.219C280.649 249.67 280.47 250.103 280.151 250.422C279.833 250.741 279.401 250.92 278.95 250.92Z" fill="white"/>
<path d="M233.254 262.247C233.125 262.247 233.002 262.298 232.911 262.389C232.82 262.48 232.769 262.604 232.769 262.732V275.612C232.769 275.741 232.82 275.864 232.911 275.955C233.002 276.046 233.125 276.098 233.254 276.098H278.225C278.353 276.098 278.477 276.046 278.568 275.955C278.658 275.864 278.71 275.741 278.71 275.612V262.732C278.71 262.604 278.658 262.48 278.568 262.389C278.477 262.298 278.353 262.247 278.225 262.247H233.254Z" fill="white"/>
<path d="M31.1394 192.037C31.1394 192.037 23.9645 222.386 32.7338 222.386C41.5032 222.386 62.2306 188.044 62.2306 188.044C62.2306 188.044 83.7553 176.862 74.986 172.869C66.2167 168.876 55.0557 179.258 55.0557 179.258L42.1776 197.171L41.5032 188.044L31.1394 192.037Z" fill="#FFB9B9"/>
<path d="M47.8809 166.48L43.0977 161.688C43.0977 161.688 33.5312 167.279 32.7339 172.869C31.9367 178.46 27.9507 196.03 27.9507 196.03L42.6991 197.228L47.4823 190.04L47.8809 166.48Z" fill="#CFCCE0"/>
</g>
<defs>
<clipPath id="clip0">
<rect x="0.0854492" y="0.527222" width="636" height="418" fill="white"/>
</clipPath>
</defs>
</svg>
