<svg width="630" height="404" viewBox="0 0 630 404" fill="none" xmlns="http://www.w3.org/2000/svg">
<g clip-path="url(#clip0)">
<path d="M630 0.24585H196.131V277.962H630V0.24585Z" fill="#E6E6E6"/>
<path d="M617.594 35.0784H208.537V261.532H617.594V35.0784Z" fill="white"/>
<path d="M629.815 0H195.946V18.4222H629.815V0Z" fill="#F9A826"/>
<path d="M209.643 12.8328C211.53 12.8328 213.059 11.3041 213.059 9.41838C213.059 7.53265 211.53 6.00397 209.643 6.00397C207.756 6.00397 206.227 7.53265 206.227 9.41838C206.227 11.3041 207.756 12.8328 209.643 12.8328Z" fill="white"/>
<path d="M222.61 12.8328C224.497 12.8328 226.027 11.3041 226.027 9.41838C226.027 7.53265 224.497 6.00397 222.61 6.00397C220.724 6.00397 219.194 7.53265 219.194 9.41838C219.194 11.3041 220.724 12.8328 222.61 12.8328Z" fill="white"/>
<path d="M235.578 12.8328C237.464 12.8328 238.994 11.3041 238.994 9.41838C238.994 7.53265 237.464 6.00397 235.578 6.00397C233.691 6.00397 232.161 7.53265 232.161 9.41838C232.161 11.3041 233.691 12.8328 235.578 12.8328Z" fill="white"/>
<path d="M501.849 56.2887H368.674C368.389 56.2512 368.128 56.1118 367.939 55.8963C367.75 55.6808 367.646 55.404 367.646 55.1174C367.646 54.8308 367.75 54.554 367.939 54.3385C368.128 54.1231 368.389 53.9836 368.674 53.9462H501.849C502.133 53.9836 502.394 54.1231 502.583 54.3385C502.772 54.554 502.877 54.8308 502.877 55.1174C502.877 55.404 502.772 55.6808 502.583 55.8963C502.394 56.1118 502.133 56.2512 501.849 56.2887Z" fill="#CCCCCC"/>
<path d="M409.571 69.1725H324.898C324.614 69.135 324.353 68.9956 324.164 68.7801C323.975 68.5646 323.871 68.2878 323.871 68.0012C323.871 67.7146 323.975 67.4378 324.164 67.2224C324.353 67.0069 324.614 66.8674 324.898 66.83H409.571C409.856 66.8674 410.117 67.0069 410.306 67.2224C410.495 67.4378 410.599 67.7146 410.599 68.0012C410.599 68.2878 410.495 68.5646 410.306 68.7801C410.117 68.9956 409.856 69.135 409.571 69.1725Z" fill="#CCCCCC"/>
<path d="M501.849 69.4067H417.176C416.891 69.3693 416.63 69.2298 416.441 69.0143C416.252 68.7988 416.148 68.522 416.148 68.2355C416.148 67.9489 416.252 67.6721 416.441 67.4566C416.63 67.2411 416.891 67.1017 417.176 67.0642H501.849C502.133 67.1017 502.394 67.2411 502.583 67.4566C502.772 67.6721 502.876 67.9489 502.876 68.2355C502.876 68.522 502.772 68.7988 502.583 69.0143C502.394 69.2298 502.133 69.3693 501.849 69.4067H501.849Z" fill="#CCCCCC"/>
<path d="M409.777 82.0563H325.104C324.819 82.0189 324.558 81.8794 324.369 81.6639C324.18 81.4485 324.076 81.1716 324.076 80.8851C324.076 80.5985 324.18 80.3217 324.369 80.1062C324.558 79.8907 324.819 79.7513 325.104 79.7138H409.777C410.061 79.7513 410.322 79.8907 410.511 80.1062C410.7 80.3217 410.805 80.5985 410.805 80.8851C410.805 81.1716 410.7 81.4485 410.511 81.6639C410.322 81.8794 410.061 82.0189 409.777 82.0563Z" fill="#CCCCCC"/>
<path d="M409.983 94.9401H325.309C325.025 94.9027 324.764 94.7632 324.575 94.5477C324.386 94.3323 324.282 94.0554 324.282 93.7688C324.282 93.4823 324.386 93.2055 324.575 92.99C324.764 92.7745 325.025 92.635 325.309 92.5976H409.983C410.267 92.635 410.528 92.7745 410.717 92.99C410.906 93.2055 411.01 93.4823 411.01 93.7688C411.01 94.0554 410.906 94.3323 410.717 94.5477C410.528 94.7632 410.267 94.9027 409.983 94.9401Z" fill="#CCCCCC"/>
<path d="M448.414 82.0563H424.163C423.879 82.0189 423.618 81.8794 423.429 81.6639C423.24 81.4485 423.136 81.1716 423.136 80.8851C423.136 80.5985 423.24 80.3217 423.429 80.1062C423.618 79.8907 423.879 79.7513 424.163 79.7138H448.414C448.699 79.7513 448.96 79.8907 449.149 80.1062C449.338 80.3217 449.442 80.5985 449.442 80.8851C449.442 81.1716 449.338 81.4485 449.149 81.6639C448.96 81.8794 448.699 82.0189 448.414 82.0563Z" fill="#CCCCCC"/>
<path d="M448.414 94.7059H424.163C423.879 94.6684 423.618 94.529 423.429 94.3135C423.24 94.098 423.136 93.8212 423.136 93.5346C423.136 93.248 423.24 92.9712 423.429 92.7557C423.618 92.5403 423.879 92.4008 424.163 92.3633H448.414C448.699 92.4008 448.96 92.5403 449.149 92.7557C449.338 92.9712 449.442 93.248 449.442 93.5346C449.442 93.8212 449.338 94.098 449.149 94.3135C448.96 94.529 448.699 94.6684 448.414 94.7059Z" fill="#CCCCCC"/>
<path d="M489.107 94.7059H464.856C464.571 94.6684 464.31 94.529 464.121 94.3135C463.932 94.098 463.828 93.8212 463.828 93.5346C463.828 93.248 463.932 92.9712 464.121 92.7557C464.31 92.5403 464.571 92.4008 464.856 92.3633H489.107C489.391 92.4008 489.652 92.5403 489.841 92.7557C490.03 92.9712 490.134 93.248 490.134 93.5346C490.134 93.8212 490.03 94.098 489.841 94.3135C489.652 94.529 489.391 94.6684 489.107 94.7059Z" fill="#CCCCCC"/>
<path d="M348.533 56.2887H324.282C323.997 56.2512 323.736 56.1118 323.547 55.8963C323.358 55.6808 323.254 55.404 323.254 55.1174C323.254 54.8308 323.358 54.554 323.547 54.3385C323.736 54.1231 323.997 53.9836 324.282 53.9462H348.533C348.817 53.9836 349.078 54.1231 349.267 54.3385C349.456 54.554 349.56 54.8308 349.56 55.1174C349.56 55.404 349.456 55.6808 349.267 55.8963C349.078 56.1118 348.817 56.2512 348.533 56.2887Z" fill="#CCCCCC"/>
<path d="M409.263 204.013H324.59C324.306 203.975 324.045 203.836 323.856 203.62C323.667 203.405 323.562 203.128 323.562 202.842C323.562 202.555 323.667 202.278 323.856 202.063C324.045 201.847 324.306 201.708 324.59 201.67H409.263C409.548 201.708 409.809 201.847 409.998 202.063C410.187 202.278 410.291 202.555 410.291 202.842C410.291 203.128 410.187 203.405 409.998 203.62C409.809 203.836 409.548 203.975 409.263 204.013H409.263Z" fill="#CCCCCC"/>
<path d="M408.852 229.781H324.179C323.895 229.743 323.634 229.604 323.445 229.388C323.256 229.173 323.151 228.896 323.151 228.609C323.151 228.323 323.256 228.046 323.445 227.83C323.634 227.615 323.895 227.475 324.179 227.438H408.852C409.137 227.475 409.398 227.615 409.587 227.83C409.776 228.046 409.88 228.323 409.88 228.609C409.88 228.896 409.776 229.173 409.587 229.388C409.398 229.604 409.137 229.743 408.852 229.781H408.852Z" fill="#CCCCCC"/>
<path d="M409.058 242.664H324.385C324.1 242.627 323.839 242.487 323.65 242.272C323.461 242.056 323.357 241.78 323.357 241.493C323.357 241.206 323.461 240.93 323.65 240.714C323.839 240.499 324.1 240.359 324.385 240.322H409.058C409.342 240.359 409.603 240.499 409.792 240.714C409.981 240.93 410.086 241.206 410.086 241.493C410.086 241.78 409.981 242.056 409.792 242.272C409.603 242.487 409.342 242.627 409.058 242.664H409.058Z" fill="#CCCCCC"/>
<path d="M445.229 230.015H420.978C420.694 229.977 420.433 229.838 420.243 229.622C420.054 229.407 419.95 229.13 419.95 228.843C419.95 228.557 420.054 228.28 420.243 228.065C420.433 227.849 420.694 227.71 420.978 227.672H445.229C445.513 227.71 445.774 227.849 445.963 228.065C446.152 228.28 446.257 228.557 446.257 228.843C446.257 229.13 446.152 229.407 445.963 229.622C445.774 229.838 445.513 229.977 445.229 230.015Z" fill="#CCCCCC"/>
<path d="M445.229 242.664H420.978C420.694 242.627 420.433 242.487 420.243 242.272C420.054 242.056 419.95 241.78 419.95 241.493C419.95 241.206 420.054 240.93 420.243 240.714C420.433 240.499 420.694 240.359 420.978 240.322H445.229C445.513 240.359 445.774 240.499 445.963 240.714C446.152 240.93 446.257 241.206 446.257 241.493C446.257 241.78 446.152 242.056 445.963 242.272C445.774 242.487 445.513 242.627 445.229 242.664Z" fill="#CCCCCC"/>
<path d="M485.921 230.015H461.67C461.386 229.977 461.125 229.838 460.936 229.622C460.747 229.407 460.643 229.13 460.643 228.843C460.643 228.557 460.747 228.28 460.936 228.065C461.125 227.849 461.386 227.71 461.67 227.672H485.921C486.206 227.71 486.467 227.849 486.656 228.065C486.845 228.28 486.949 228.557 486.949 228.843C486.949 229.13 486.845 229.407 486.656 229.622C486.467 229.838 486.206 229.977 485.921 230.015Z" fill="#CCCCCC"/>
<path d="M501.952 216.897H368.776C368.492 216.859 368.231 216.72 368.042 216.504C367.853 216.289 367.749 216.012 367.749 215.725C367.749 215.439 367.853 215.162 368.042 214.947C368.231 214.731 368.492 214.592 368.776 214.554H501.952C502.236 214.592 502.497 214.731 502.686 214.947C502.875 215.162 502.979 215.439 502.979 215.725C502.979 216.012 502.875 216.289 502.686 216.504C502.497 216.72 502.236 216.859 501.952 216.897Z" fill="#CCCCCC"/>
<path d="M348.636 216.897H324.385C324.1 216.859 323.839 216.72 323.65 216.504C323.461 216.289 323.357 216.012 323.357 215.725C323.357 215.439 323.461 215.162 323.65 214.947C323.839 214.731 324.1 214.592 324.385 214.554H348.636C348.92 214.592 349.181 214.731 349.37 214.947C349.559 215.162 349.663 215.439 349.663 215.725C349.663 216.012 349.559 216.289 349.37 216.504C349.181 216.72 348.92 216.859 348.636 216.897Z" fill="#CCCCCC"/>
<path d="M388.815 115.751L355.931 148.206L388.815 180.66L396.213 173.265L371.345 148.411L396.418 123.352L388.815 115.751Z" fill="#E6E6E6"/>
<path d="M437.317 115.751L470.199 148.206L437.317 180.66L429.918 173.265L454.785 148.411L429.712 123.352L437.317 115.751Z" fill="#E6E6E6"/>
<path d="M388.815 115.751L355.931 148.206L388.815 180.66L396.213 173.265L371.345 148.411L396.418 123.352L388.815 115.751Z" fill="#F9A826"/>
<path d="M437.317 115.751L470.199 148.206L437.317 180.66L429.918 173.265L454.785 148.411L429.712 123.352L437.317 115.751Z" fill="#F9A826"/>
<path d="M333.921 387.232C344.153 400.927 365.392 402.368 365.392 402.368C365.392 402.368 370.042 381.606 359.81 367.911C349.579 354.216 328.34 352.775 328.34 352.775C328.34 352.775 323.69 373.537 333.921 387.232Z" fill="#E6E6E6"/>
<path d="M386.044 392.38C379.292 401.417 365.277 402.368 365.277 402.368C365.277 402.368 362.209 388.668 368.96 379.631C375.712 370.594 389.727 369.643 389.727 369.643C389.727 369.643 392.795 383.343 386.044 392.38Z" fill="#E6E6E6"/>
<path d="M106.31 326.923V362.471H96.1476L89.3734 325.23L106.31 326.923Z" fill="#FFB9B9"/>
<path d="M25.8599 326.923V362.471H15.6982L8.92334 325.23L25.8599 326.923Z" fill="#FFB9B9"/>
<path d="M79.4692 64.8765C79.4692 64.8765 63.1394 53.1458 61.0981 58.7561C59.0569 64.3664 73.3455 74.5669 73.3455 74.5669L79.4692 64.8765Z" fill="#FFB9B9"/>
<path d="M21.5493 79.9223C21.5493 100.203 30.286 100.833 44.5187 100.833C58.7514 100.833 73.0904 100.203 73.0904 79.9223C73.0904 59.6413 61.5525 43.2004 47.3198 43.2004C33.0872 43.2004 21.5493 59.6413 21.5493 79.9223Z" fill="#2F2E41"/>
<path d="M56.5053 79.6673C56.5053 79.6673 54.4641 94.9681 64.1599 95.9881C73.8558 97.0081 32.5209 100.068 32.5209 100.068C32.5209 100.068 43.2373 90.3778 37.624 82.7274C32.0106 75.077 56.5053 79.6673 56.5053 79.6673Z" fill="#FFB9B9"/>
<path d="M108.046 353.041L111.619 383.133C111.619 383.133 129.479 405.064 118.253 403.534C107.026 402.004 99.8815 403.859 99.8815 401.819C99.8815 399.779 99.6176 392.49 98.0866 392.49C96.5557 392.49 95.2888 404 95.2888 404C95.2888 404 90.696 403.653 90.1857 403.143C89.6754 402.633 89.1651 373.442 89.1651 373.442C89.1651 373.442 87.6342 364.772 90.696 360.692C93.7579 356.612 93.2475 353.041 93.2475 353.041L108.046 353.041Z" fill="#2F2E41"/>
<path d="M26.7497 352.711L30.3219 382.802C30.3219 382.802 48.1826 404.733 36.9559 403.203C25.7291 401.673 18.5848 403.528 18.5848 401.488C18.5848 399.448 18.3208 392.159 16.7899 392.159C15.259 392.159 13.992 403.669 13.992 403.669C13.992 403.669 9.39925 403.322 8.88894 402.812C8.37863 402.302 7.86833 373.112 7.86833 373.112C7.86833 373.112 6.33741 364.441 9.39925 360.361C12.4611 356.281 11.9508 352.711 11.9508 352.711H26.7497Z" fill="#2F2E41"/>
<path d="M81.5104 174.022C81.5104 174.022 97.8403 220.434 98.8609 230.635C99.8815 240.836 97.8403 275.517 97.8403 275.517C97.8403 275.517 112.639 335.441 109.577 335.951C106.516 336.461 89.4644 338.879 88.9541 336.329C88.4438 333.779 86.6245 329.831 87.1348 328.301C87.6451 326.771 85.6039 321.16 85.6039 318.1C85.6039 315.04 78.4486 298.979 78.9589 296.428C79.4692 293.878 70.2836 256.136 68.7527 253.076C67.2218 250.016 63.1393 228.595 63.1393 228.595C63.1393 228.595 40.1755 291.328 39.6652 292.858C39.1549 294.388 37.1136 296.938 38.1342 297.448C39.1549 297.959 36.6033 301.529 36.6033 301.529C36.6033 301.529 31.3155 322.691 31.3155 323.711C31.3155 324.731 32.3361 336.277 30.2948 336.787C28.2536 337.297 7.40339 337.264 6.38277 333.694C5.36215 330.124 17.2116 288.778 17.2116 288.778C17.2116 288.778 25.8869 262.767 23.3353 256.136C20.7838 249.506 25.8869 209.724 27.9281 206.664C29.9693 203.604 30.4796 185.243 30.4796 185.243L81.5104 174.022Z" fill="#2F2E41"/>
<path d="M47.575 88.0827C56.5937 88.0827 63.9048 80.7756 63.9048 71.7618C63.9048 62.7481 56.5937 55.441 47.575 55.441C38.5562 55.441 31.2451 62.7481 31.2451 71.7618C31.2451 80.7756 38.5562 88.0827 47.575 88.0827Z" fill="#FFB9B9"/>
<path d="M56.5053 92.4179C56.5053 92.4179 38.1342 92.928 37.1136 91.3979C36.093 89.8678 10.5776 94.9681 10.5776 105.169C10.5776 115.369 25.3766 155.151 25.3766 155.151C25.3766 155.151 30.9899 183.713 29.459 186.773C27.9281 189.833 86.1032 180.142 84.5723 175.042C83.0413 169.942 74.3661 158.721 85.5929 149.031C96.8196 139.34 101.412 129.14 101.412 129.14L88.1444 93.948C88.1444 93.948 74.8764 91.9079 71.8146 93.948C68.7527 95.9881 56.5053 92.4179 56.5053 92.4179Z" fill="#F9A826"/>
<path d="M97.8403 131.69L101.412 129.14C101.412 129.14 134.582 94.458 125.907 87.8277C117.232 81.1973 104.474 75.077 98.3506 74.567C92.2269 74.057 87.1238 69.4667 87.1238 69.4667C87.1238 69.4667 80.4898 57.7361 75.3868 65.3865C70.2837 73.0369 64.6703 75.587 71.8146 78.1372C78.9589 80.6873 83.5517 79.6673 87.1238 82.2174C90.696 84.7675 104.474 88.8477 98.3506 90.3778C94.8391 91.2285 91.4204 92.4244 88.1444 93.948L81.5104 105.679L97.8403 131.69Z" fill="#F9A826"/>
<path d="M40.1754 217.884C40.1754 217.884 53.4434 237.265 43.7476 236.245C34.0517 235.225 29.459 221.965 29.459 221.965L40.1754 217.884Z" fill="#FFB9B9"/>
<path d="M14.1497 102.618L10.5776 105.169C10.5776 105.169 -1.15951 169.432 10.5776 186.263C22.3146 203.094 23.3353 202.074 23.3353 202.074C23.3353 202.074 25.3765 200.544 26.3971 210.744C27.4177 220.945 25.8868 225.025 28.9486 225.025C32.0105 225.025 45.7888 221.965 44.7682 219.415C43.7476 216.864 37.1136 202.074 36.6033 198.503C36.093 194.933 33.5414 186.773 32.5208 182.183C31.5002 177.592 37.1136 175.042 34.562 165.352C32.0105 155.661 28.4383 138.32 28.4383 134.75C28.4383 131.18 14.1497 102.618 14.1497 102.618Z" fill="#F9A826"/>
<path d="M31.7554 57.2261C31.7554 62.7189 39.295 67.1716 48.5955 67.1716C57.8961 67.1716 66.4563 70.1142 66.4563 64.6215C66.4563 59.1287 57.8961 47.2806 48.5955 47.2806C39.295 47.2806 31.7554 51.7333 31.7554 57.2261Z" fill="#2F2E41"/>
<path d="M72.9374 83.3644C72.9374 83.3644 73.6247 101.853 55.2416 100.833C36.8585 99.8133 57.7259 85.0292 57.7259 85.0292L72.9374 83.3644Z" fill="#2F2E41"/>
</g>
<defs>
<clipPath id="clip0">
<rect width="630" height="404" fill="white"/>
</clipPath>
</defs>
</svg>
