<svg id="b163acb8-d7e3-44ae-95e8-546cddd31e63" data-name="Layer 1" xmlns="http://www.w3.org/2000/svg" xmlns:xlink="http://www.w3.org/1999/xlink" width="1077.87" height="813.02" viewBox="0 0 1077.87 813.02">
<path xmlns="http://www.w3.org/2000/svg" transform="translate(-61.06 -43.49)" fill="#292841" opacity="0.1" d="M724.89,154.84c-46.25,39.26-106.24,36.72-158.81,16.29S465.22,114.34,414,88.49c-42.94-21.67-88-35.9-133.61-42.23-65.28-9.06-138.18,2-183.66,65.44-50.65,70.68-46.76,198.16,8,263,27.87,33,64.36,49.2,96.18,75S262.2,518.26,259.49,568c-2.51,46-31.68,81.37-61.87,103.54-23.33,17.13-52.06,35.84-54.87,71.33-2.72,34.33,21.44,61.24,44.51,76.54,75.26,49.91,168,49.43,243-1.26C457,800.06,481.56,776,509.61,761.92c73.65-37,154.81.24,232.8,13.87,66,11.53,133.69,5.55,198-17.48,38.62-13.83,77.39-35,104.52-74.36,19.57-28.4,31.76-64.35,43.2-99.85q18.3-56.77,35.19-114.36c6.75-23.05,13.4-46.54,15.15-71.19,3.16-44.68-10.16-88.85-28.3-126.55C1067.1,182.47,994.56,119.52,916,103.53S754.33,118.77,693.4,187.11"/>
</svg>